<?xml version="1.0" standalone="no"?>
<!DOCTYPE svg PUBLIC "-//W3C//DTD SVG 1.1//EN" "http://www.w3.org/Graphics/SVG/1.1/DTD/svg11.dtd" >
<svg>
<metadata>
Created by FontForge 20120731 at Wed Aug 10 12:25:45 2016
 By ,,,
Copyright (c) 2006 The Hoefler Type Foundry, Inc., dba Hoefler &#38; Frere-Jones. All Rights Reserved.
</metadata>
<defs>
<font id="VitesseSans-Black" horiz-adv-x="654" >
  <font-face 
    font-family="Vitesse Sans Black"
    font-weight="425"
    font-stretch="normal"
    units-per-em="1000"
    panose-1="2 0 0 0 0 0 0 0 0 0"
    ascent="800"
    descent="-200"
    x-height="560"
    cap-height="700"
    bbox="-82 -361 1061 1022"
    underline-thickness="50"
    underline-position="-50"
    unicode-range="U+0020-2212"
  />
<missing-glyph horiz-adv-x="500" 
d="M0 -200v1000h500v-1000h-500zM71 750l179 -390l179 390h-358zM50 -76l172 376l-172 376v-752zM450 676l-172 -376l172 -376v752zM250 240l-179 -390h358z" />
    <glyph glyph-name="fi" unicode="fi" horiz-adv-x="746" 
d="M305 0h-203v411h-77v149h77v23q0 100 36 136t124 36h138v-142h-56q-26 0 -33 -7t-7 -34v-14h105v-147h-104v-411zM697 785v-152h-214v152h214zM689 560v-560h-198v560h198z" />
    <glyph glyph-name="fl" unicode="fl" horiz-adv-x="745" 
d="M305 0h-203v411h-77v149h77v23q0 100 36 136t124 36h138v-142h-56q-26 0 -33 -7t-7 -34v-14h105v-147h-104v-411zM691 0h-203v755h203v-755z" />
    <glyph glyph-name=".notdef" horiz-adv-x="500" 
d="M0 -200v1000h500v-1000h-500zM71 750l179 -390l179 390h-358zM50 -76l172 376l-172 376v-752zM450 676l-172 -376l172 -376v752zM250 240l-179 -390h358z" />
    <glyph glyph-name=".null" horiz-adv-x="0" 
 />
    <glyph glyph-name="nonmarkingreturn" horiz-adv-x="333" 
 />
    <glyph glyph-name="space" unicode=" " horiz-adv-x="258" 
 />
    <glyph glyph-name="exclam" unicode="!" horiz-adv-x="329" 
d="M222 240h-105l-60 418v42h215v-42zM72 185h185v-185h-185v185z" />
    <glyph glyph-name="quotedbl" unicode="&#x22;" horiz-adv-x="497" 
d="M101 347l-55 303v50h188v-50l-55 -303h-78zM342 347l-55 303v50h188v-50l-55 -303h-78z" />
    <glyph glyph-name="numbersign" unicode="#" horiz-adv-x="836" 
d="M95 557h140l35 143h176l-28 -143h92l35 143h186l-35 -143h100v-151h-136l-23 -96h104v-151h-141l-38 -159h-186l38 159h-89l-38 -159h-186l38 159h-99v151h136l23 96h-104v151zM374 421l-30 -126h117l30 126h-117z" />
    <glyph glyph-name="dollar" unicode="$" horiz-adv-x="697" 
d="M425 -100h-151v100h-69q-91 0 -124 33q-22 22 -31 64.5t-9 133.5h179q3 -68 10 -75q8 -8 47 -8h21v127l-114 12q-64 7 -95 38q-21 21 -30.5 57.5t-9.5 106.5q0 128 49 177q34 34 108 34h68v90h151v-90h53q92 0 124 -32q23 -23 32 -62t10 -128h-179q-3 59 -10 66
q-8 8 -42 8h-12v-121l118 -12q64 -8 94 -38q41 -41 41 -162q0 -136 -49 -185q-13 -13 -20.5 -18.5t-25 -10.5t-44.5 -5h-90v-100zM409 263l-8 1v-116h9q42 0 49 7q8 8 8 53q0 35 -8 43q-7 7 -50 12zM244 454q6 -6 50 -11l4 -1v110h-16q-34 0 -39 -5q-7 -7 -7 -47
q0 -38 8 -46z" />
    <glyph glyph-name="percent" unicode="%" horiz-adv-x="889" 
d="M242 509q0 70 -8 76q-7 7 -34 7h-2q-27 0 -34 -7q-8 -6 -8 -76t8 -76q7 -7 34 -7h2q27 0 34 7q8 6 8 76zM360 509q0 -134 -38 -169q-23 -22 -77 -22h-92q-54 0 -77 22q-38 35 -38 169t38 169q23 22 77 22h92q54 0 77 -22q38 -35 38 -169zM268 -3h-135l256 363l232 343
h135l-255 -363zM733 191q0 70 -8 76q-7 7 -34 7h-2q-27 0 -34 -7q-8 -6 -8 -76t8 -76q7 -7 34 -7h2q27 0 34 7q8 6 8 76zM851 191q0 -134 -38 -169q-23 -22 -77 -22h-92q-54 0 -77 22q-38 35 -38 169t38 169q23 22 77 22h92q54 0 77 -22q38 -35 38 -169z" />
    <glyph glyph-name="ampersand" unicode="&#x26;" horiz-adv-x="763" 
d="M426 548q-9 9 -37 9h-4q-23 0 -33 -10q-9 -9 -9 -40q0 -28 8 -44q11 -21 51 -68l47 -54h7l55 79h187v-150h-85l-42 -59l58 -61h79v-150h-195l-60 67h-7q-24 -37 -49 -52.5t-69 -15.5h-113q-92 0 -130 38q-24 24 -34 63.5t-10 119.5q0 62 6.5 89.5t30.5 50.5q27 26 85 39
q-17 41 -17 120q0 56 8.5 89t31.5 56q36 36 132 36h129q99 0 135 -36q23 -23 31.5 -61.5t8.5 -122.5h-186q-1 58 -10 68zM224 219q0 -52 10 -64q7 -9 46 -9h1q33 0 49 23l10 14l-75 89l-17 -3q-12 -3 -18 -9t-6 -41z" />
    <glyph glyph-name="quotesingle" unicode="'" horiz-adv-x="283" 
d="M107 347l-55 303v50h188v-50l-55 -303h-78z" />
    <glyph glyph-name="parenleft" unicode="(" horiz-adv-x="399" 
d="M75 275q0 163 14 221q21 90 179 239h116q-82 -151 -90 -192q-13 -61 -13 -268t13 -268q8 -41 90 -192h-116q-158 149 -179 239q-14 58 -14 221z" />
    <glyph glyph-name="parenright" unicode=")" horiz-adv-x="399" 
d="M324 275q0 -163 -14 -221q-21 -90 -179 -239h-116q82 151 90 192q13 61 13 268t-13 268q-8 41 -90 192h116q158 -149 179 -239q14 -58 14 -221z" />
    <glyph glyph-name="asterisk" unicode="*" horiz-adv-x="512" 
d="M114 392l92 100l42 -24l-40 -130zM67 584l132 -30v-48l-132 -30v108zM114 668l94 54l40 -130l-42 -24zM398 392l-94 -54l-40 130l42 24zM445 584v-108l-132 30v48zM398 668l-92 -100l-42 24l40 130z" />
    <glyph glyph-name="plus" unicode="+" horiz-adv-x="526" 
d="M336 586v-150h150v-146h-150v-150h-146v150h-150v146h150v150h146z" />
    <glyph glyph-name="comma" unicode="," horiz-adv-x="253" 
d="M34 185h185v-148q0 -46 -12.5 -74.5t-44.5 -55.5l-99 -85l-55 43l71 91q17 22 17 43v1h-62v185z" />
    <glyph glyph-name="hyphen" unicode="-" horiz-adv-x="388" 
d="M347 252h-306v152h306v-152z" />
    <glyph glyph-name="period" unicode="." horiz-adv-x="253" 
d="M34 185h185v-185h-185v185z" />
    <glyph glyph-name="slash" unicode="/" horiz-adv-x="577" 
d="M164 -160h-194l393 870h194z" />
    <glyph glyph-name="zero" unicode="0" horiz-adv-x="735" 
d="M394 537h-53q-46 0 -55 -8q-23 -18 -23 -179t23 -179q9 -8 55 -8h53q46 0 55 8q23 18 23 179t-23 179q-9 8 -55 8zM271 700h193q105 0 148 -40q81 -74 81 -310t-81 -310q-43 -40 -148 -40h-193q-105 0 -148 40q-81 74 -81 310t81 310q43 40 148 40z" />
    <glyph glyph-name="one" unicode="1" horiz-adv-x="459" 
d="M373 0h-212v516l-104 -35l-48 144l201 76h163v-701z" />
    <glyph glyph-name="two" unicode="2" horiz-adv-x="708" 
d="M52 0v103q0 79 8.5 122.5t31.5 76.5q34 49 114 72l169 48q56 16 67 32q10 14 10 44q0 26 -10 35t-57 9h-45q-44 0 -56 -12q-14 -14 -14 -77h-201q-1 90 10 137.5t37 73.5q36 36 140 36h237q83 0 119 -38q54 -56 48 -175q-5 -91 -40 -134q-36 -45 -126 -71l-157 -46
q-46 -13 -63 -33q-11 -13 -11 -38v-3h396v-162h-607z" />
    <glyph glyph-name="three" unicode="3" horiz-adv-x="713" 
d="M396 282h-118v146h114q26 0 35 9q13 15 13 48q0 34 -12 46q-10 10 -37 10h-76q-37 0 -47 -9q-6 -6 -8.5 -21t-5.5 -68h-205q2 90 14 140t41 79q39 38 144 38h229q94 0 136 -42q46 -47 46 -136q0 -129 -110 -164v-2q117 -29 117 -164q0 -92 -56 -148q-44 -44 -136 -44
h-233q-58 0 -89.5 8.5t-53.5 30.5q-29 29 -41 83.5t-14 147.5h205q5 -94 14 -102q11 -9 51 -9h82q27 0 37 10q14 14 14 51q0 39 -13 52q-10 10 -37 10z" />
    <glyph glyph-name="four" unicode="4" horiz-adv-x="712" 
d="M580 0h-208v159h-344v85q0 57 30 105l186 301q31 50 92 50h244v-398h103v-143h-103v-159zM372 546h-8l-137 -244h145v244z" />
    <glyph glyph-name="five" unicode="5" horiz-adv-x="695" 
d="M237 282l-184 51l24 367h552v-158h-381l-8 -104l7 -2q24 21 45.5 29.5t64.5 8.5h119q89 0 127 -38q46 -46 46 -181q0 -105 -9.5 -146.5t-37.5 -71.5q-35 -37 -116 -37h-263q-99 0 -134 34q-25 25 -35.5 71.5t-9.5 134.5l200 2q0 -61 12 -73q9 -10 50 -10h88q29 0 37 8
q13 13 13 70q0 58 -13 71q-8 8 -37 8h-63q-52 0 -94 -34z" />
    <glyph glyph-name="six" unicode="6" horiz-adv-x="711" 
d="M276 527q-15 -15 -16 -139q26 24 54.5 35t74.5 11h104q86 0 123 -37q45 -45 45 -161q0 -85 -10 -127.5t-36 -71.5q-35 -37 -115 -37h-243q-58 0 -89 10t-56 35q-70 68 -70 305q0 236 71 305q25 25 56 35t89 10h204q105 0 143 -38q19 -19 29.5 -53t13.5 -62t5 -72h-207
q-3 45 -13 54q-11 10 -53 10h-42q-49 0 -62 -12zM400 280h-67q-40 0 -72 -23q4 -75 16 -86q12 -13 63 -13h61q32 0 40 8q13 13 13 55q0 39 -12 51q-8 8 -42 8z" />
    <glyph glyph-name="seven" unicode="7" horiz-adv-x="644" 
d="M39 535v165h567v-150l-292 -550h-228l288 535h-335z" />
    <glyph glyph-name="eight" unicode="8" horiz-adv-x="684" 
d="M310 427h72q28 0 37 9q15 15 15 53q0 37 -14 49q-12 10 -38 10h-72q-26 0 -38 -10q-14 -12 -14 -49q0 -38 15 -53q9 -9 37 -9zM224 700h244q91 0 132 -41q46 -47 46 -135q0 -66 -29 -108.5t-81 -57.5v-2q117 -30 117 -171q0 -87 -53 -142q-43 -43 -135 -43h-238
q-92 0 -135 43q-53 55 -53 142q0 141 117 171v2q-52 15 -81 57.5t-29 108.5q0 88 46 135q41 41 132 41zM310 152h72q32 0 42 9q16 16 16 57q0 40 -15 54q-13 11 -43 11h-72q-30 0 -43 -11q-15 -14 -15 -54q0 -41 16 -57q10 -9 42 -9z" />
    <glyph glyph-name="nine" unicode="9" horiz-adv-x="713" 
d="M437 174q15 15 16 132q-49 -46 -131 -46h-104q-86 0 -123 37q-45 45 -45 164q0 86 10 129.5t36 72.5q35 37 115 37h245q58 0 89 -10t56 -35q70 -68 70 -305q0 -236 -71 -305q-25 -25 -56 -35t-89 -10h-211q-105 0 -143 38q-27 27 -36 70t-12 109h210q4 -37 13 -45
q11 -10 53 -10h46q49 0 62 12zM311 414h69q42 0 71 22q-4 80 -15 93q-12 13 -63 13h-63q-32 0 -40 -8q-13 -13 -13 -59q0 -41 12 -53q8 -8 42 -8z" />
    <glyph glyph-name="colon" unicode=":" horiz-adv-x="253" 
d="M34 185h185v-185h-185v185zM34 560h185v-185h-185v185z" />
    <glyph glyph-name="semicolon" unicode=";" horiz-adv-x="253" 
d="M34 560h185v-185h-185v185zM34 185h185v-148q0 -46 -12.5 -74.5t-44.5 -55.5l-99 -85l-55 43l71 91q17 22 17 43v1h-62v185z" />
    <glyph glyph-name="less" unicode="&#x3c;" horiz-adv-x="486" 
d="M436 453l-213 -90l213 -90v-176l-396 189v154l396 189v-176z" />
    <glyph glyph-name="equal" unicode="=" horiz-adv-x="526" 
d="M40 406v142h446v-142h-446zM40 178v142h446v-142h-446z" />
    <glyph glyph-name="greater" unicode="&#x3e;" horiz-adv-x="486" 
d="M50 97v176l212 90l-212 90v176l396 -189v-154z" />
    <glyph glyph-name="question" unicode="?" horiz-adv-x="596" 
d="M34 463q-1 93 9 137.5t33 67.5q32 32 124 32h209q75 0 106 -34q47 -47 43 -177q-2 -52 -11.5 -80t-39.5 -52q-15 -12 -33.5 -21t-43 -19t-38.5 -17q-22 -11 -34 -23t-16 -37h-155v19q1 61 5.5 85t20.5 40q20 20 76 45q49 22 58 31q10 10 10 43q0 28 -7 35q-6 6 -39 6h-35
q-34 0 -42 -8q-10 -10 -10 -73h-190zM171 185h185v-185h-185v185z" />
    <glyph glyph-name="at" unicode="@" horiz-adv-x="880" 
d="M694 116q28 0 42 17q25 32 25 206q0 205 -53 258q-20 20 -46.5 27.5t-81.5 7.5h-269q-60 0 -87.5 -9t-50.5 -32q-54 -54 -54 -316q0 -150 14 -220t41 -97q22 -22 50.5 -31t86.5 -9h444v-68h-455q-79 0 -117.5 14t-68.5 45q-74 76 -74 366t74 366q30 31 68.5 45t117.5 14
h292q75 0 112 -13.5t65 -42.5q71 -71 71 -305q0 -120 -12 -177t-37 -82q-33 -34 -89 -34h-68q-94 0 -132 71q-46 -45 -69 -58t-53 -13h-27q-68 0 -96 29q-23 23 -31.5 65t-8.5 133q0 89 10.5 131t35.5 66q31 30 94 30h30q32 0 56 -11t61 -46l20 57h142l-6 -110v-242
q0 -16 8 -24t26 -8zM444 169q25 0 52 11v187q-27 9 -48 9h-19q-28 0 -38 -9q-13 -12 -13 -94t13 -94q11 -10 38 -10h15z" />
    <glyph glyph-name="A" unicode="A" horiz-adv-x="758" 
d="M524 0l-44 151h-215l-43 -151h-215l212 637q14 42 26.5 54t47.5 12h172q35 0 48 -12.5t26 -53.5l212 -637h-227zM367 507l-60 -206h131l-60 206h-11z" />
    <glyph glyph-name="B" unicode="B" horiz-adv-x="735" 
d="M67 0v700h438q93 0 133 -40q51 -51 51 -136q0 -75 -29.5 -113t-91.5 -53v-2q66 -15 96.5 -51.5t30.5 -117.5q0 -92 -53 -145q-42 -42 -136 -42h-439zM282 425h140q26 0 33 7q14 16 14 55q0 37 -13 50q-8 8 -34 8h-140v-120zM475 220q0 46 -13 59q-10 10 -37 10h-143v-134
h143q27 0 36 9q14 14 14 56z" />
    <glyph glyph-name="C" unicode="C" horiz-adv-x="719" 
d="M679 280q-1 -105 -13.5 -159t-40.5 -81q-40 -40 -137 -40h-234q-98 0 -138 40q-76 74 -76 310t76 310q40 40 138 40h234q97 0 137 -40q27 -27 40 -80.5t14 -156.5h-201q-3 92 -17 106q-8 8 -46 8h-89q-38 0 -46 -8q-19 -19 -19 -179t19 -179q8 -8 46 -8h89q38 0 46 8
q14 14 17 109h201z" />
    <glyph glyph-name="D" unicode="D" horiz-adv-x="760" 
d="M67 700h361q83 0 132.5 -13.5t81.5 -45.5q38 -38 54.5 -101.5t16.5 -189.5t-16.5 -190t-54.5 -102q-31 -31 -80.5 -44.5t-133.5 -13.5h-361v700zM492 350q0 156 -19 176q-16 16 -78 16h-113v-384h113q61 0 78 17q19 19 19 175z" />
    <glyph glyph-name="E" unicode="E" horiz-adv-x="682" 
d="M639 162v-162h-572v700h572v-162h-357v-108h260v-150h-260v-118h357z" />
    <glyph glyph-name="F" unicode="F" horiz-adv-x="641" 
d="M618 539h-336v-139h235v-150h-235v-250h-215v700h551v-161z" />
    <glyph glyph-name="G" unicode="G" horiz-adv-x="740" 
d="M256 700h233q107 0 144 -36q28 -27 42.5 -73t16.5 -131h-206q-1 51 -21 71q-8 8 -44 8h-90q-38 0 -46 -8q-22 -22 -22 -181q0 -161 22 -183q8 -8 46 -8h95q37 0 45 8q21 21 21 76v5h-150v145h356v-85q0 -116 -18 -174.5t-52 -92.5q-41 -41 -140 -41h-232q-98 0 -138 40
q-76 74 -76 310t76 310q40 40 138 40z" />
    <glyph glyph-name="H" unicode="H" horiz-adv-x="798" 
d="M731 700v-700h-215v271h-234v-271h-215v700h215v-263h234v263h215z" />
    <glyph glyph-name="I" unicode="I" horiz-adv-x="355" 
d="M285 0h-215v700h215v-700z" />
    <glyph glyph-name="J" unicode="J" horiz-adv-x="655" 
d="M226 282q0 -82 14 -96q11 -11 51 -11h20q37 0 48 11q14 14 14 92v422h215v-419q0 -110 -13.5 -159.5t-44.5 -80.5q-24 -24 -59 -32.5t-103 -8.5h-127q-68 0 -103 8.5t-59 32.5q-31 31 -44 81t-13 160h204z" />
    <glyph glyph-name="K" unicode="K" horiz-adv-x="756" 
d="M501 700h232l-250 -330l266 -370h-251l-189 279h-27v-279h-215v700h215v-269h25z" />
    <glyph glyph-name="L" unicode="L" horiz-adv-x="630" 
d="M282 700v-539h326v-161h-541v700h215z" />
    <glyph glyph-name="M" unicode="M" horiz-adv-x="968" 
d="M901 700v-700h-203v424h-10l-126 -384q-8 -23 -17 -31.5t-28 -8.5h-72q-19 0 -28.5 9t-16.5 31l-126 384h-10v-424h-197v700h268q23 0 33.5 -8.5t17.5 -32.5l97 -318h9l91 318q7 24 17.5 32.5t33.5 8.5h267z" />
    <glyph glyph-name="N" unicode="N" horiz-adv-x="799" 
d="M732 700v-700h-149q-34 0 -54 11t-38 40l-216 349h-5v-400h-203v700h183q34 0 54.5 -11t37.5 -40l182 -307h5v358h203z" />
    <glyph glyph-name="O" unicode="O" horiz-adv-x="745" 
d="M256 700h233q98 0 138 -40q76 -74 76 -310t-76 -310q-40 -40 -138 -40h-233q-98 0 -138 40q-76 74 -76 310t76 310q40 40 138 40zM263 350q0 -160 19 -179q8 -8 46 -8h89q38 0 46 8q19 19 19 179t-19 179q-8 8 -46 8h-89q-38 0 -46 -8q-19 -19 -19 -179z" />
    <glyph glyph-name="P" unicode="P" horiz-adv-x="704" 
d="M282 377h106q48 0 56 8q16 15 16 75q0 59 -16 73q-9 8 -56 8h-106v-164zM682 459q0 -92 -17 -137.5t-47 -72.5q-35 -31 -130 -31h-206v-218h-215v700h421q95 0 130 -31q30 -27 47 -72.5t17 -137.5z" />
    <glyph glyph-name="Q" unicode="Q" horiz-adv-x="745" 
d="M588 -82h-170l-32 82h-130q-98 0 -138 40q-76 74 -76 310t76 310q40 40 138 40h233q98 0 138 -40q76 -74 76 -310t-76 -310q-28 -28 -75 -36zM263 350q0 -160 19 -179q8 -8 46 -8h1l-44 121h147l37 -107q13 26 13 173q0 160 -19 179q-8 8 -46 8h-89q-38 0 -46 -8
q-19 -19 -19 -179z" />
    <glyph glyph-name="R" unicode="R" horiz-adv-x="758" 
d="M282 391h116q48 0 56 8q16 15 16 68q0 52 -16 66q-9 8 -56 8h-116v-150zM469 155q-2 57 -19 72q-14 13 -63 13h-105v-240h-215v700h447q100 0 136 -36q25 -25 35.5 -59.5t10.5 -103.5q0 -94 -28 -133t-92 -52v-2q58 -13 84.5 -41t28.5 -99q3 -96 11 -174h-219
q-9 59 -12 155z" />
    <glyph glyph-name="S" unicode="S" horiz-adv-x="708" 
d="M664 219q0 -131 -54 -185q-34 -34 -110 -34h-289q-91 0 -124 33q-23 23 -33 68.5t-10 134.5h197q2 -62 11 -71q8 -8 47 -8h101q44 0 51 7q9 9 9 45q0 31 -9 40q-7 7 -52 12l-207 24q-64 7 -95 38q-45 45 -45 166q0 123 54 177q34 34 108 34h269q92 0 124 -32
q24 -24 35 -66.5t12 -128.5h-197q-2 53 -11 62q-8 8 -42 8h-100q-35 0 -40 -5q-8 -8 -8 -41q0 -31 9 -40q6 -6 52 -11l209 -24q64 -8 94 -38q44 -44 44 -165z" />
    <glyph glyph-name="T" unicode="T" 
d="M642 536h-210v-536h-215v536h-205v164h630v-164z" />
    <glyph glyph-name="U" unicode="U" horiz-adv-x="775" 
d="M708 700v-419q0 -110 -13.5 -159.5t-44.5 -80.5q-24 -24 -59 -32.5t-103 -8.5h-201q-68 0 -103 8.5t-59 32.5q-31 31 -44.5 80.5t-13.5 159.5v419h215v-418q0 -78 14 -92q11 -11 58 -11h67q47 0 58 11q14 14 14 92v418h215z" />
    <glyph glyph-name="V" unicode="V" horiz-adv-x="757" 
d="M745 700l-202 -637q-12 -38 -28.5 -52t-51.5 -14h-170q-35 0 -51.5 14t-28.5 52l-201 637h235l132 -520h11l131 520h224z" />
    <glyph glyph-name="W" unicode="W" horiz-adv-x="1073" 
d="M1056 700l-144 -637q-8 -37 -26.5 -51.5t-55.5 -14.5h-144q-37 0 -55.5 14.5t-25.5 51.5l-64 314h-9l-63 -314q-7 -37 -25.5 -51.5t-55.5 -14.5h-145q-37 0 -55.5 14.5t-26.5 51.5l-144 637h234l72 -470h10l85 406q7 36 25.5 51t54.5 15h93q37 0 55 -14.5t25 -51.5
l85 -406h9l72 470h219z" />
    <glyph glyph-name="X" unicode="X" horiz-adv-x="751" 
d="M502 0l-129 204h-7l-128 -204h-226l233 352l-229 348h239l124 -193h7l124 193h225l-229 -344l233 -356h-237z" />
    <glyph glyph-name="Y" unicode="Y" horiz-adv-x="701" 
d="M706 700l-253 -466v-234h-205v234l-253 466h224l135 -267h4l136 267h212z" />
    <glyph glyph-name="Z" unicode="Z" horiz-adv-x="702" 
d="M660 161v-161h-620v154l348 381h-335v165h609v-154l-338 -385h336z" />
    <glyph glyph-name="bracketleft" unicode="[" horiz-adv-x="481" 
d="M80 730h341v-145h-147v-590h147v-145h-341v880z" />
    <glyph glyph-name="backslash" unicode="\" horiz-adv-x="577" 
d="M413 -160l-393 870h194l393 -870h-194z" />
    <glyph glyph-name="bracketright" unicode="]" horiz-adv-x="481" 
d="M401 730v-880h-341v145h147v590h-147v145h341z" />
    <glyph glyph-name="underscore" unicode="_" horiz-adv-x="494" 
d="M-5 -207v142h504v-142h-504z" />
    <glyph glyph-name="grave" unicode="`" horiz-adv-x="500" 
d="M440 618h-131l-195 127v5h242l84 -127v-5z" />
    <glyph glyph-name="a" unicode="a" horiz-adv-x="643" 
d="M65 373q1 72 8 104t26 51q32 32 106 32h234q81 0 113 -33q19 -20 26.5 -51.5t7.5 -96.5v-379h-202v59q-48 -38 -77 -49t-69 -11h-67q-69 0 -97 28q-32 32 -32 128q0 105 35 140t133 35q81 0 174 -17v39q0 49 -9 58q-8 8 -33 8h-48q-25 0 -33 -8t-9 -37h-187zM292 127
q39 0 92 26v71h-62q-61 0 -74 -13q-11 -11 -11 -37q0 -27 10 -37t36 -10h9z" />
    <glyph glyph-name="b" unicode="b" horiz-adv-x="651" 
d="M57 0v755h203v-274q52 50 78.5 65t62.5 15h43q82 0 117 -35q27 -27 37.5 -79t10.5 -167q0 -111 -13 -163t-43 -82q-36 -36 -113 -36h-48q-38 0 -65 11.5t-67 48.5v-59h-203zM324 409q-27 0 -64 -14v-232q33 -12 59 -12h29q33 0 45 12q9 9 12.5 31t3.5 86t-3.5 86
t-12.5 31q-12 12 -45 12h-24z" />
    <glyph glyph-name="c" unicode="c" horiz-adv-x="602" 
d="M378 223h184q0 -83 -7.5 -123t-30.5 -64q-20 -20 -44 -28t-68 -8h-204q-44 0 -68 8t-44 28q-29 30 -41.5 83t-12.5 161t12.5 161t41.5 83q19 20 43.5 28t68.5 8h204q44 0 68 -8t44 -28q23 -24 31 -63t7 -116h-184q-2 51 -7 57q-8 9 -35 9h-49q-28 0 -35 -9
q-10 -12 -10 -122t10 -122q7 -9 35 -9h49q27 0 35 9q6 6 7 65z" />
    <glyph glyph-name="d" unicode="d" horiz-adv-x="650" 
d="M593 0h-203v79q-51 -50 -78 -65t-63 -15h-42q-82 0 -117 35q-27 27 -37.5 79t-10.5 167q0 111 13 163t43 82q36 36 113 36h47q37 0 64 -12t68 -48v254h203v-755zM326 151q29 0 64 14v232q-33 12 -59 12h-28q-33 0 -45 -12q-9 -9 -12.5 -31t-3.5 -86t3.5 -86t12.5 -31
q12 -12 45 -12h23z" />
    <glyph glyph-name="e" unicode="e" horiz-adv-x="628" 
d="M554 243h-317q1 -87 11 -99q7 -9 51 -9h47q46 0 53 9q6 8 6 54h181q0 -124 -37 -161t-108 -37h-233q-44 0 -68 8t-44 28q-30 31 -42 80t-12 164t12 164t42 80q19 20 43.5 28t68.5 8h223q44 0 68 -8t44 -28q27 -28 35 -73.5t8 -166.5v-9q0 -19 -6 -25.5t-26 -6.5zM248 416
q-9 -10 -11 -84h159q0 73 -9 84q-8 9 -45 9h-43q-44 0 -51 -9z" />
    <glyph glyph-name="f" unicode="f" horiz-adv-x="434" 
d="M305 0h-203v411h-77v149h77v23q0 100 36 136t124 36h138v-142h-56q-26 0 -33 -7t-7 -34v-14h105v-147h-104v-411z" />
    <glyph glyph-name="g" unicode="g" horiz-adv-x="649" 
d="M445 -170h-267q-60 0 -88 28q-16 16 -22.5 46t-6.5 96h180q0 -23 6 -29q7 -7 32 -7h68q25 0 33 8q9 9 9 60v87q-49 -47 -76 -59.5t-65 -12.5h-41q-82 0 -117 35q-27 27 -37.5 77.5t-10.5 144.5q0 91 13.5 141.5t42.5 79.5q36 36 113 36h46q37 0 64 -12t68 -48v59h203
v-542q0 -68 -8 -100.5t-27 -53.5q-31 -34 -112 -34zM325 191q29 0 64 14v192q-33 12 -59 12h-27q-33 0 -45 -12q-16 -16 -16 -97t16 -97q12 -12 45 -12h22z" />
    <glyph glyph-name="h" unicode="h" 
d="M260 0h-203v755h203v-278q53 54 81 69t71 15h49q73 0 104 -31q18 -18 25 -48t7 -94v-388h-203v358q0 28 -10 38t-35 10h-17q-29 0 -72 -14v-392z" />
    <glyph glyph-name="i" unicode="i" horiz-adv-x="312" 
d="M263 785v-152h-214v152h214zM255 560v-560h-198v560h198z" />
    <glyph glyph-name="j" unicode="j" horiz-adv-x="314" 
d="M59 560v-530q0 -30 -8 -38q-7 -7 -40 -7h-35v-143q75 -15 125 -15q84 0 120 36q19 19 27.5 47.5t8.5 83.5v566h-198zM265 785v-152h-214v152h214z" />
    <glyph glyph-name="k" unicode="k" horiz-adv-x="644" 
d="M260 0h-203v755h203v-407h26l137 212h210l-177 -266l188 -294h-230l-127 207h-27v-207z" />
    <glyph glyph-name="l" unicode="l" horiz-adv-x="311" 
d="M257 0h-203v755h203v-755z" />
    <glyph glyph-name="m" unicode="m" horiz-adv-x="951" 
d="M57 560h203v-83q53 54 81 69t71 15h29q73 0 104 -31q20 -20 27 -58q58 58 85.5 73.5t71.5 15.5h29q73 0 104 -31q18 -18 25 -48t7 -94v-388h-207v361q0 28 -10 38t-35 10h-1q-30 0 -64 -11v-10v-388h-203v361q0 28 -10 38t-35 10h-1q-23 0 -68 -14v-395h-203v560z" />
    <glyph glyph-name="n" unicode="n" 
d="M260 0h-203v560h203v-83q53 54 81 69t71 15h49q73 0 104 -31q18 -18 25 -48t7 -94v-388h-203v358q0 28 -10 38t-35 10h-17q-29 0 -72 -14v-392z" />
    <glyph glyph-name="o" unicode="o" horiz-adv-x="630" 
d="M208 0q-44 0 -68 8t-44 28q-29 30 -41.5 83t-12.5 161t12.5 161t41.5 83q19 20 43.5 28t68.5 8h214q44 0 68 -8t44 -28q29 -30 41.5 -83t12.5 -161q0 -109 -12.5 -161.5t-41.5 -82.5q-20 -20 -44 -28t-68 -8h-214zM242 280q0 -110 10 -122q7 -9 35 -9h56q27 0 35 9
q10 12 10 122t-10 122q-8 9 -35 9h-56q-28 0 -35 -9q-10 -12 -10 -122z" />
    <glyph glyph-name="p" unicode="p" horiz-adv-x="651" 
d="M57 560h203v-79q52 50 78.5 65t62.5 15h43q82 0 117 -35q27 -27 37.5 -80.5t10.5 -165.5q0 -108 -13 -161.5t-43 -83.5q-36 -36 -113 -36h-48q-38 0 -65 11.5t-67 48.5v-229h-203v730zM324 409q-27 0 -64 -14v-232q33 -12 59 -12h29q33 0 45 12q16 16 16 117t-16 117
q-12 12 -45 12h-24z" />
    <glyph glyph-name="q" unicode="q" horiz-adv-x="651" 
d="M594 560v-730h-203v229q-40 -37 -67.5 -48.5t-64.5 -11.5h-48q-77 0 -113 36q-30 30 -43 83.5t-13 161.5q0 112 10.5 165.5t37.5 80.5q35 35 117 35h43q35 0 62 -15.5t79 -64.5v79h203zM332 151q26 0 59 12v232q-39 14 -64 14h-24q-33 0 -45 -12q-16 -16 -16 -117
t16 -117q12 -12 45 -12h29z" />
    <glyph glyph-name="r" unicode="r" horiz-adv-x="472" 
d="M260 0h-203v560h203v-91q49 53 76 72t59 19h54v-194h-66q-67 0 -123 -24v-342z" />
    <glyph glyph-name="s" unicode="s" horiz-adv-x="604" 
d="M562 179q0 -111 -44 -155q-24 -24 -81 -24h-256q-80 0 -105 28q-32 35 -34 152h175q1 -29 6 -36q4 -7 25 -7h100q21 0 26 5q4 4 4 28q0 20 -6 26t-40 10l-175 22q-55 6 -80 31q-17 17 -22.5 41.5t-5.5 84.5q0 107 43 150q25 25 81 25h241q80 0 106 -26q17 -17 24 -49
t8 -101h-175q-1 24 -6 32q-4 7 -25 7h-85q-21 0 -27 -6q-5 -5 -5 -23q0 -21 9 -27q8 -5 35 -8l184 -22q54 -6 78 -30q27 -27 27 -128z" />
    <glyph glyph-name="t" unicode="t" horiz-adv-x="471" 
d="M433 150v-130l-48 -11q-62 -15 -144 -15q-81 0 -116 35q-28 28 -28 114v268h-76v149h76v140h203v-140h134v-149h-134v-216q0 -30 8 -38q7 -7 40 -7h85z" />
    <glyph glyph-name="u" unicode="u" 
d="M394 560h203v-560h-203v82q-54 -53 -81.5 -68t-70.5 -15h-49q-73 0 -104 31q-18 18 -25 48t-7 94v388h203v-361q0 -28 10 -38t35 -10h17q26 0 72 13v396z" />
    <glyph glyph-name="v" unicode="v" horiz-adv-x="636" 
d="M622 560l-170 -516q-9 -28 -23 -37t-44 -9h-134q-30 0 -44 9t-23 37l-170 516h212l91 -360h11l90 360h204z" />
    <glyph glyph-name="w" unicode="w" horiz-adv-x="881" 
d="M17 560h200l53 -340h11l63 296q6 28 21 37t46 9h75q30 0 44.5 -9t20.5 -37l64 -296h11l52 340h186l-117 -516q-9 -28 -23 -37t-44 -9h-124q-30 0 -45.5 9.5t-21.5 36.5l-43 211h-11l-43 -211q-6 -28 -21 -37t-46 -9h-124q-30 0 -44 9t-23 37z" />
    <glyph glyph-name="x" unicode="x" horiz-adv-x="640" 
d="M216 0h-207l183 286l-178 274h220l89 -141h4l89 141h208l-177 -275l184 -285h-221l-96 150h-6z" />
    <glyph glyph-name="y" unicode="y" horiz-adv-x="643" 
d="M17 560h215l104 -315h8l78 315h207l-213 -632q-19 -55 -57.5 -77.5t-111.5 -22.5q-62 0 -156 8v145h108q21 0 29 20l6 18z" />
    <glyph glyph-name="z" unicode="z" horiz-adv-x="602" 
d="M560 140v-140h-518v131l263 289h-250v140h503v-131l-263 -289h265z" />
    <glyph glyph-name="braceleft" unicode="{" horiz-adv-x="465" 
d="M21 230v90q102 9 121 26q13 12 13 33q0 14 -10 77.5t-10 90.5q0 32 31.5 66t131.5 112h119q-88 -125 -88 -161q0 -22 8 -87.5t8 -83.5q0 -52 -25.5 -75t-107.5 -42v-2q82 -19 107.5 -42t25.5 -75q0 -18 -8 -83.5t-8 -87.5q0 -36 88 -161h-119q-100 78 -131.5 112
t-31.5 66q0 27 10 90.5t10 77.5q0 21 -13 33q-19 17 -121 26z" />
    <glyph glyph-name="bar" unicode="|" horiz-adv-x="338" 
d="M263 -160h-188v940h188v-940z" />
    <glyph glyph-name="braceright" unicode="}" horiz-adv-x="465" 
d="M444 230q-102 -9 -121 -26q-13 -12 -13 -33q0 -14 10 -77.5t10 -90.5q0 -32 -31.5 -66t-131.5 -112h-119q88 125 88 161q0 22 -8 87.5t-8 83.5q0 52 25.5 75t107.5 42v2q-82 19 -107.5 42t-25.5 75q0 18 8 83.5t8 87.5q0 36 -88 161h119q100 -78 131.5 -112t31.5 -66
q0 -27 -10 -90.5t-10 -77.5q0 -21 13 -33q19 -17 121 -26v-90z" />
    <glyph glyph-name="uni00A0" unicode="&#xa0;" horiz-adv-x="258" 
 />
    <glyph glyph-name="exclamdown" unicode="&#xa1;" horiz-adv-x="329" 
d="M107 460h105l60 -418v-42h-215v42zM257 515h-185v185h185v-185z" />
    <glyph glyph-name="cent" unicode="&#xa2;" horiz-adv-x="617" 
d="M206 78q-44 0 -68 8t-44 28q-30 30 -42 78t-12 161q0 112 12 160t42 79q20 20 44 28t68 8h42v94h151v-94h34q71 0 108 -37t37 -178h-151q0 51 -9 60t-39 9h-3v-258h5q30 0 39 9t9 68h151q0 -149 -37 -186t-108 -37h-36v-100h-151v100h-42zM225 233q7 -9 35 -9h11v258h-11
q-28 0 -35 -9q-10 -12 -10 -125q0 -103 10 -115z" />
    <glyph glyph-name="sterling" unicode="&#xa3;" horiz-adv-x="701" 
d="M663 161v-161h-628v161h74v96h-74v144h74v75q0 75 11.5 118.5t40.5 70.5q36 35 128 35h189q53 0 82 -7.5t49 -27.5q49 -49 49 -197h-191q0 58 -12 69q-8 8 -39 8h-51q-31 0 -39 -8q-11 -11 -11 -70v-66h206v-144h-206v-96h348z" />
    <glyph glyph-name="yen" unicode="&#xa5;" horiz-adv-x="711" 
d="M629 330v-150h-171v-180h-205v180h-171v150h130l-207 370h224l130 -246h4l131 246h212l-207 -370h130z" />
    <glyph glyph-name="section" unicode="&#xa7;" horiz-adv-x="717" 
d="M37 362q0 81 33 111q19 18 62 21q-5 27 -5 53q0 94 42 130q28 24 93 24h192q70 0 96 -26q28 -28 31 -133h-172q-1 26 -6 33q-4 6 -23 6h-46q-19 0 -25 -5q-5 -5 -5 -25q0 -22 9 -28q10 -5 32 -7l224 -18q58 -4 83 -31q28 -28 28 -117q0 -98 -40 -127q-16 -12 -55 -16
q5 -27 5 -47q0 -97 -41 -134q-27 -26 -92 -26h-194q-82 0 -108 29q-31 35 -34 134h172q1 -28 7 -36q6 -7 27 -7h50q23 0 28 5t5 28q0 21 -7 27q-9 8 -40 10l-205 17q-62 5 -89 34q-32 33 -32 121zM210 362q0 -17 9 -23q8 -6 32 -7l214 -16q29 -2 34 4t5 24q0 17 -9 23
q-8 6 -32 7l-214 16q-29 2 -34 -4t-5 -24z" />
    <glyph glyph-name="dieresis" unicode="&#xa8;" horiz-adv-x="500" 
d="M27 619v151h191v-151h-191zM272 619v151h191v-151h-191z" />
    <glyph glyph-name="copyright" unicode="&#xa9;" horiz-adv-x="794" 
d="M138 52q-66 66 -66 298t66 298q27 27 62 39.5t106 12.5h182q71 0 106 -12.5t62 -39.5q66 -66 66 -298t-66 -298q-27 -27 -62 -39.5t-106 -12.5h-182q-71 0 -106 12.5t-62 39.5zM145 350q0 -119 12 -174t35 -79q18 -18 43 -26t76 -8h172q51 0 76 8t43 26q23 24 35 79
t12 174t-12 174t-35 79q-18 18 -43 26t-76 8h-172q-51 0 -76 -8t-43 -26q-23 -24 -35 -79t-12 -174zM572 313q-1 -103 -30 -132q-22 -22 -75 -22h-129q-54 0 -77 22q-41 41 -41 171t41 171q23 22 77 22h129q53 0 75 -22q29 -29 30 -130h-114q-1 47 -9 55q-5 5 -25 5h-44
q-21 0 -25 -5q-10 -7 -10 -96q0 -88 10 -96q4 -5 25 -5h44q20 0 25 5q8 8 9 57h114z" />
    <glyph glyph-name="ordfeminine" unicode="&#xaa;" horiz-adv-x="502" 
d="M434 315h-137v39q-31 -25 -48.5 -32.5t-43.5 -7.5h-56q-47 0 -66 19q-22 22 -22 87q0 75 24 99q25 24 94 24q57 0 118 -12v23q0 36 -6 42q-5 5 -23 5h-36q-17 0 -23 -5q-4 -6 -5 -27h-127q1 86 23 109q21 22 72 22h169q51 0 71 -21q22 -22 22 -97v-267zM63 148v103h371
v-103h-371zM226 404q34 0 71 19v44h-45q-42 0 -50 -9q-7 -7 -7 -23q0 -17 7 -24t24 -7z" />
    <glyph glyph-name="guillemotleft" unicode="&#xab;" horiz-adv-x="648" 
d="M30 233v94l123 137h203l-163 -184l163 -184h-203zM302 233v94l123 137h203l-163 -184l163 -184h-203z" />
    <glyph glyph-name="registered" unicode="&#xae;" horiz-adv-x="488" 
d="M195 338h98q49 0 68 19q26 26 26 143t-26 143q-19 19 -68 19h-98q-49 0 -68 -19q-26 -26 -26 -143t26 -143q19 -19 68 -19zM301 294h-114q-40 0 -60 8t-37 25q-40 40 -40 173t40 173q17 17 37 25t60 8h114q40 0 60 -8t37 -25q40 -40 40 -173t-40 -173q-17 -17 -37 -25
t-60 -8zM275 538q0 15 -4 19q-3 3 -17 3h-36v-45h36q14 0 17 3q4 4 4 20zM271 439q0 19 -4 23t-21 4h-30v-74h-70v220h142q32 0 43 -11q15 -15 15 -53q0 -29 -9 -41.5t-30 -15.5v-1q20 -4 28 -12.5t9 -32.5q2 -41 4 -53h-72q-5 20 -5 47z" />
    <glyph glyph-name="macron" unicode="&#xaf;" horiz-adv-x="500" 
d="M57 620v130h386v-130h-386z" />
    <glyph glyph-name="degree" unicode="&#xb0;" horiz-adv-x="432" 
d="M201 442h30q26 0 33 7q9 9 9 68t-9 68q-7 7 -33 7h-30q-26 0 -33 -7q-9 -9 -9 -68t9 -68q7 -7 33 -7zM391 517q0 -126 -38 -161q-23 -22 -77 -22h-120q-54 0 -77 22q-38 35 -38 161t38 161q23 22 77 22h120q54 0 77 -22q38 -35 38 -161z" />
    <glyph glyph-name="plusminus" unicode="&#xb1;" horiz-adv-x="526" 
d="M336 679v-140h150v-146h-150v-140h-146v140h-150v146h150v140h146zM40 48v144h446v-144h-446z" />
    <glyph glyph-name="acute" unicode="&#xb4;" horiz-adv-x="500" 
d="M114 618v5l84 127h242v-5l-195 -127h-131z" />
    <glyph glyph-name="paragraph" unicode="&#xb6;" horiz-adv-x="664" 
d="M32 459q0 92 17 137.5t47 72.5q35 31 130 31h371v-700h-215v218h-156q-95 0 -130 31q-30 27 -47 72.5t-17 137.5z" />
    <glyph glyph-name="periodcentered" unicode="&#xb7;" horiz-adv-x="253" 
d="M34 417h185v-185h-185v185z" />
    <glyph glyph-name="cedilla" unicode="&#xb8;" horiz-adv-x="500" 
d="M307 -24q47 0 62 -15q19 -19 19 -95q0 -65 -19 -84q-16 -16 -65 -16h-141l-70 63v26h146q16 0 20 4t4 17t-4 17t-20 4h-49v79h117z" />
    <glyph glyph-name="ordmasculine" unicode="&#xba;" horiz-adv-x="518" 
d="M334 315h-150q-52 0 -76 24q-20 20 -28.5 57.5t-8.5 110.5q0 132 37 169q24 24 76 24h150q52 0 76 -24q37 -37 37 -169q0 -73 -8.5 -110.5t-28.5 -57.5q-24 -24 -76 -24zM237 419h44q19 0 24 5q6 6 6 84t-6 84q-5 5 -24 5h-44q-19 0 -24 -5q-6 -6 -6 -84t6 -84
q5 -5 24 -5zM68 148v103h382v-103h-382z" />
    <glyph glyph-name="guillemotright" unicode="&#xbb;" horiz-adv-x="648" 
d="M618 233l-123 -137h-203l163 184l-163 184h203l123 -137v-94zM346 233l-123 -137h-203l163 184l-163 184h203l123 -137v-94z" />
    <glyph glyph-name="questiondown" unicode="&#xbf;" horiz-adv-x="596" 
d="M562 237q1 -93 -9 -137.5t-33 -67.5q-32 -32 -124 -32h-209q-75 0 -106 34q-47 47 -43 177q2 52 11.5 80t39.5 52q15 12 33.5 21t43 19t38.5 17q22 11 34 23t16 37h155v-19q-1 -61 -5.5 -85t-20.5 -40q-20 -20 -76 -45q-49 -22 -58 -31q-10 -10 -10 -43q0 -28 7 -35
q6 -6 39 -6h35q34 0 42 8q10 10 10 73h190zM425 515h-185v185h185v-185z" />
    <glyph glyph-name="Agrave" unicode="&#xc0;" horiz-adv-x="758" 
d="M524 0l-44 151h-215l-43 -151h-215l212 637q14 42 26.5 54t47.5 12h172q35 0 48 -12.5t26 -53.5l212 -637h-227zM463 758h-131l-195 127v5h242l84 -127v-5zM367 507l-60 -206h131l-60 206h-11z" />
    <glyph glyph-name="Aacute" unicode="&#xc1;" horiz-adv-x="758" 
d="M524 0l-44 151h-215l-43 -151h-215l212 637q14 42 26.5 54t47.5 12h172q35 0 48 -12.5t26 -53.5l212 -637h-227zM295 758v5l84 127h242v-5l-195 -127h-131zM367 507l-60 -206h131l-60 206h-11z" />
    <glyph glyph-name="Acircumflex" unicode="&#xc2;" horiz-adv-x="758" 
d="M524 0l-44 151h-215l-43 -151h-215l212 637q14 42 26.5 54t47.5 12h172q35 0 48 -12.5t26 -53.5l212 -637h-227zM433 758l-54 47l-54 -47h-166v5l141 127h162l141 -127v-5h-170zM367 507l-60 -206h131l-60 206h-11z" />
    <glyph glyph-name="Atilde" unicode="&#xc3;" horiz-adv-x="758" 
d="M524 0l-44 151h-215l-43 -151h-215l212 637q14 42 26.5 54t47.5 12h172q35 0 48 -12.5t26 -53.5l212 -637h-227zM181 763v62q0 49 19 68q18 18 54 18h29q25 0 53 -6l117 -29l18 33h110v-62q0 -49 -19 -68q-18 -18 -54 -18h-29q-25 0 -53 6l-117 29l-18 -33h-110zM367 507
l-60 -206h131l-60 206h-11z" />
    <glyph glyph-name="Adieresis" unicode="&#xc4;" horiz-adv-x="758" 
d="M524 0l-44 151h-215l-43 -151h-215l212 637q14 42 26.5 54t47.5 12h172q35 0 48 -12.5t26 -53.5l212 -637h-227zM161 759v151h191v-151h-191zM406 759v151h191v-151h-191zM367 507l-60 -206h131l-60 206h-11z" />
    <glyph glyph-name="Aring" unicode="&#xc5;" horiz-adv-x="758" 
d="M524 0l-44 151h-215l-43 -151h-215l196 587q15 46 40 58q-27 26 -27 94q0 69 28 94q21 19 64 19h142q43 0 64 -19q28 -25 28 -94t-28 -94q25 -11 42 -58l195 -587h-227zM367 507l-60 -206h131l-60 206h-11zM398 764h-38q-20 0 -25 -5q-6 -6 -6 -20t6 -20q5 -5 25 -5h38
q20 0 25 5q6 6 6 20t-6 20q-5 5 -25 5z" />
    <glyph glyph-name="AE" unicode="&#xc6;" horiz-adv-x="1104" 
d="M489 0v171h-200l-86 -171h-219l335 634q23 41 38.5 53.5t50.5 12.5h653v-162h-357v-108h260v-150h-260v-118h357v-162h-572zM479 549l-111 -220h121v220h-10z" />
    <glyph glyph-name="Ccedilla" unicode="&#xc7;" horiz-adv-x="709" 
d="M679 280q-1 -105 -13.5 -159t-40.5 -81q-40 -40 -137 -40h-234q-98 0 -138 40q-76 74 -76 310t76 310q40 40 138 40h234q97 0 137 -40q27 -27 40 -80.5t14 -156.5h-201q-3 92 -17 106q-8 8 -46 8h-89q-38 0 -46 -8q-19 -19 -19 -179t19 -179q8 -8 46 -8h89q38 0 46 8
q14 14 17 109h201zM425 -24q47 0 62 -15q19 -19 19 -95q0 -65 -19 -84q-16 -16 -65 -16h-141l-70 63v26h146q16 0 20 4t4 17t-4 17t-20 4h-49v79h117z" />
    <glyph glyph-name="Egrave" unicode="&#xc8;" horiz-adv-x="682" 
d="M639 162v-162h-572v700h572v-162h-357v-108h260v-150h-260v-118h357zM437 758h-131l-195 127v5h242l84 -127v-5z" />
    <glyph glyph-name="Eacute" unicode="&#xc9;" horiz-adv-x="682" 
d="M639 162v-162h-572v700h572v-162h-357v-108h260v-150h-260v-118h357zM269 758v5l84 127h242v-5l-195 -127h-131z" />
    <glyph glyph-name="Ecircumflex" unicode="&#xca;" horiz-adv-x="682" 
d="M639 162v-162h-572v700h572v-162h-357v-108h260v-150h-260v-118h357zM407 758l-54 47l-54 -47h-166v5l141 127h162l141 -127v-5h-170z" />
    <glyph glyph-name="Edieresis" unicode="&#xcb;" horiz-adv-x="682" 
d="M639 162v-162h-572v700h572v-162h-357v-108h260v-150h-260v-118h357zM135 759v151h191v-151h-191zM380 759v151h191v-151h-191z" />
    <glyph glyph-name="Igrave" unicode="&#xcc;" horiz-adv-x="355" 
d="M285 0h-215v700h215v-700zM261 758h-131l-195 127v5h242l84 -127v-5z" />
    <glyph glyph-name="Iacute" unicode="&#xcd;" horiz-adv-x="355" 
d="M285 0h-215v700h215v-700zM93 758v5l84 127h242v-5l-195 -127h-131z" />
    <glyph glyph-name="Icircumflex" unicode="&#xce;" horiz-adv-x="355" 
d="M285 0h-215v700h215v-700zM231 758l-54 47l-54 -47h-166v5l141 127h162l141 -127v-5h-170z" />
    <glyph glyph-name="Idieresis" unicode="&#xcf;" horiz-adv-x="355" 
d="M285 0h-215v700h215v-700zM-41 759v151h191v-151h-191zM204 759v151h191v-151h-191z" />
    <glyph glyph-name="Eth" unicode="&#xd0;" horiz-adv-x="770" 
d="M77 700h361q83 0 132.5 -13.5t81.5 -45.5q38 -38 54.5 -101.5t16.5 -189.5t-16.5 -190t-54.5 -102q-31 -31 -80.5 -44.5t-133.5 -13.5h-361v280h-74v152h74v268zM502 350q0 156 -19 176q-16 16 -78 16h-113v-110h102v-152h-102v-122h113q61 0 78 17q19 19 19 175z" />
    <glyph glyph-name="Ntilde" unicode="&#xd1;" horiz-adv-x="799" 
d="M732 700v-700h-149q-34 0 -54 11t-38 40l-216 349h-5v-400h-203v700h183q34 0 54.5 -11t37.5 -40l182 -307h5v358h203zM201 763v62q0 49 19 68q18 18 54 18h29q25 0 53 -6l117 -29l18 33h110v-62q0 -49 -19 -68q-18 -18 -54 -18h-29q-25 0 -53 6l-117 29l-18 -33h-110z
" />
    <glyph glyph-name="Ograve" unicode="&#xd2;" horiz-adv-x="745" 
d="M256 700h233q98 0 138 -40q76 -74 76 -310t-76 -310q-40 -40 -138 -40h-233q-98 0 -138 40q-76 74 -76 310t76 310q40 40 138 40zM263 350q0 -160 19 -179q8 -8 46 -8h89q38 0 46 8q19 19 19 179t-19 179q-8 8 -46 8h-89q-38 0 -46 -8q-19 -19 -19 -179zM456 758h-131
l-195 127v5h242l84 -127v-5z" />
    <glyph glyph-name="Oacute" unicode="&#xd3;" horiz-adv-x="745" 
d="M256 700h233q98 0 138 -40q76 -74 76 -310t-76 -310q-40 -40 -138 -40h-233q-98 0 -138 40q-76 74 -76 310t76 310q40 40 138 40zM263 350q0 -160 19 -179q8 -8 46 -8h89q38 0 46 8q19 19 19 179t-19 179q-8 8 -46 8h-89q-38 0 -46 -8q-19 -19 -19 -179zM288 758v5
l84 127h242v-5l-195 -127h-131z" />
    <glyph glyph-name="Ocircumflex" unicode="&#xd4;" horiz-adv-x="745" 
d="M256 700h233q98 0 138 -40q76 -74 76 -310t-76 -310q-40 -40 -138 -40h-233q-98 0 -138 40q-76 74 -76 310t76 310q40 40 138 40zM263 350q0 -160 19 -179q8 -8 46 -8h89q38 0 46 8q19 19 19 179t-19 179q-8 8 -46 8h-89q-38 0 -46 -8q-19 -19 -19 -179zM426 758l-54 47
l-54 -47h-166v5l141 127h162l141 -127v-5h-170z" />
    <glyph glyph-name="Otilde" unicode="&#xd5;" horiz-adv-x="745" 
d="M256 700h233q98 0 138 -40q76 -74 76 -310t-76 -310q-40 -40 -138 -40h-233q-98 0 -138 40q-76 74 -76 310t76 310q40 40 138 40zM263 350q0 -160 19 -179q8 -8 46 -8h89q38 0 46 8q19 19 19 179t-19 179q-8 8 -46 8h-89q-38 0 -46 -8q-19 -19 -19 -179zM174 763v62
q0 49 19 68q18 18 54 18h29q25 0 53 -6l117 -29l18 33h110v-62q0 -49 -19 -68q-18 -18 -54 -18h-29q-25 0 -53 6l-117 29l-18 -33h-110z" />
    <glyph glyph-name="Odieresis" unicode="&#xd6;" horiz-adv-x="745" 
d="M256 700h233q98 0 138 -40q76 -74 76 -310t-76 -310q-40 -40 -138 -40h-233q-98 0 -138 40q-76 74 -76 310t76 310q40 40 138 40zM263 350q0 -160 19 -179q8 -8 46 -8h89q38 0 46 8q19 19 19 179t-19 179q-8 8 -46 8h-89q-38 0 -46 -8q-19 -19 -19 -179zM154 759v151h191
v-151h-191zM399 759v151h191v-151h-191z" />
    <glyph glyph-name="multiply" unicode="&#xd7;" horiz-adv-x="526" 
d="M147 582l116 -116l116 116l103 -103l-116 -116l116 -116l-103 -103l-116 116l-116 -116l-103 103l116 116l-116 116z" />
    <glyph glyph-name="Oslash" unicode="&#xd8;" horiz-adv-x="712" 
d="M239 700h201l25 53h165l-38 -79q4 -2 18 -14q76 -74 76 -310t-76 -310q-40 -40 -138 -40h-202l-25 -53h-165l37 79q-6 4 -16 14q-76 74 -76 310t76 310q40 40 138 40zM465 350q0 41 -2 87l-124 -274h61q38 0 46 8q19 19 19 179zM246 350q0 -63 1 -85l124 272h-60
q-38 0 -46 -8q-19 -19 -19 -179z" />
    <glyph glyph-name="Ugrave" unicode="&#xd9;" horiz-adv-x="775" 
d="M708 700v-419q0 -110 -13.5 -159.5t-44.5 -80.5q-24 -24 -59 -32.5t-103 -8.5h-201q-68 0 -103 8.5t-59 32.5q-31 31 -44.5 80.5t-13.5 159.5v419h215v-418q0 -78 14 -92q11 -11 58 -11h67q47 0 58 11q14 14 14 92v418h215zM471 758h-131l-195 127v5h242l84 -127v-5z" />
    <glyph glyph-name="Uacute" unicode="&#xda;" horiz-adv-x="775" 
d="M708 700v-419q0 -110 -13.5 -159.5t-44.5 -80.5q-24 -24 -59 -32.5t-103 -8.5h-201q-68 0 -103 8.5t-59 32.5q-31 31 -44.5 80.5t-13.5 159.5v419h215v-418q0 -78 14 -92q11 -11 58 -11h67q47 0 58 11q14 14 14 92v418h215zM303 758v5l84 127h242v-5l-195 -127h-131z" />
    <glyph glyph-name="Ucircumflex" unicode="&#xdb;" horiz-adv-x="775" 
d="M708 700v-419q0 -110 -13.5 -159.5t-44.5 -80.5q-24 -24 -59 -32.5t-103 -8.5h-201q-68 0 -103 8.5t-59 32.5q-31 31 -44.5 80.5t-13.5 159.5v419h215v-418q0 -78 14 -92q11 -11 58 -11h67q47 0 58 11q14 14 14 92v418h215zM441 758l-54 47l-54 -47h-166v5l141 127h162
l141 -127v-5h-170z" />
    <glyph glyph-name="Udieresis" unicode="&#xdc;" horiz-adv-x="775" 
d="M708 700v-419q0 -110 -13.5 -159.5t-44.5 -80.5q-24 -24 -59 -32.5t-103 -8.5h-201q-68 0 -103 8.5t-59 32.5q-31 31 -44.5 80.5t-13.5 159.5v419h215v-418q0 -78 14 -92q11 -11 58 -11h67q47 0 58 11q14 14 14 92v418h215zM169 759v151h191v-151h-191zM414 759v151h191
v-151h-191z" />
    <glyph glyph-name="Yacute" unicode="&#xdd;" horiz-adv-x="721" 
d="M716 700l-253 -466v-234h-205v234l-253 466h224l135 -267h4l136 267h212zM276 758v5l84 127h242v-5l-195 -127h-131z" />
    <glyph glyph-name="Thorn" unicode="&#xde;" horiz-adv-x="714" 
d="M282 268h106q48 0 56 8q16 15 16 75q0 59 -16 73q-9 8 -56 8h-106v-164zM282 700v-109h206q95 0 130 -31q30 -27 47 -72.5t17 -137.5t-17 -137.5t-47 -72.5q-35 -31 -130 -31h-206v-109h-215v700h215z" />
    <glyph glyph-name="germandbls" unicode="&#xdf;" horiz-adv-x="687" 
d="M92 0v411h-64v149h64v27q0 87 43 131q37 37 118 37h198q92 0 128 -37q44 -47 44 -136q0 -77 -27 -117.5t-83 -56.5v-2q77 -10 109.5 -51.5t32.5 -142.5q0 -121 -51 -172q-40 -40 -123 -40h-144v158h54q24 0 33 9q12 12 12 78q0 67 -12 79q-9 9 -33 9h-54v144h26
q23 0 30 7q12 14 12 52q0 42 -11 53q-8 8 -31 8h-26q-23 0 -31 -8q-11 -11 -11 -53v-536h-203z" />
    <glyph glyph-name="agrave" unicode="&#xe0;" horiz-adv-x="643" 
d="M65 373q1 72 8 104t26 51q32 32 106 32h234q81 0 113 -33q19 -20 26.5 -51.5t7.5 -96.5v-379h-202v59q-48 -38 -77 -49t-69 -11h-67q-69 0 -97 28q-32 32 -32 128q0 105 35 140t133 35q81 0 174 -17v39q0 49 -9 58q-8 8 -33 8h-48q-25 0 -33 -8t-9 -37h-187zM417 618
h-131l-195 127v5h242l84 -127v-5zM292 127q39 0 92 26v71h-62q-61 0 -74 -13q-11 -11 -11 -37q0 -27 10 -37t36 -10h9z" />
    <glyph glyph-name="aacute" unicode="&#xe1;" horiz-adv-x="643" 
d="M65 373q1 72 8 104t26 51q32 32 106 32h234q81 0 113 -33q19 -20 26.5 -51.5t7.5 -96.5v-379h-202v59q-48 -38 -77 -49t-69 -11h-67q-69 0 -97 28q-32 32 -32 128q0 105 35 140t133 35q81 0 174 -17v39q0 49 -9 58q-8 8 -33 8h-48q-25 0 -33 -8t-9 -37h-187zM249 618v5
l84 127h242v-5l-195 -127h-131zM292 127q39 0 92 26v71h-62q-61 0 -74 -13q-11 -11 -11 -37q0 -27 10 -37t36 -10h9z" />
    <glyph glyph-name="acircumflex" unicode="&#xe2;" horiz-adv-x="643" 
d="M65 373q1 72 8 104t26 51q32 32 106 32h234q81 0 113 -33q19 -20 26.5 -51.5t7.5 -96.5v-379h-202v59q-48 -38 -77 -49t-69 -11h-67q-69 0 -97 28q-32 32 -32 128q0 105 35 140t133 35q81 0 174 -17v39q0 49 -9 58q-8 8 -33 8h-48q-25 0 -33 -8t-9 -37h-187zM387 618
l-54 47l-54 -47h-166v5l141 127h162l141 -127v-5h-170zM292 127q39 0 92 26v71h-62q-61 0 -74 -13q-11 -11 -11 -37q0 -27 10 -37t36 -10h9z" />
    <glyph glyph-name="atilde" unicode="&#xe3;" horiz-adv-x="643" 
d="M65 373q1 72 8 104t26 51q32 32 106 32h234q81 0 113 -33q19 -20 26.5 -51.5t7.5 -96.5v-379h-202v59q-48 -38 -77 -49t-69 -11h-67q-69 0 -97 28q-32 32 -32 128q0 105 35 140t133 35q81 0 174 -17v39q0 49 -9 58q-8 8 -33 8h-48q-25 0 -33 -8t-9 -37h-187zM135 623v62
q0 49 19 68q18 18 54 18h29q25 0 53 -6l117 -29l18 33h110v-62q0 -49 -19 -68q-18 -18 -54 -18h-29q-25 0 -53 6l-117 29l-18 -33h-110zM292 127q39 0 92 26v71h-62q-61 0 -74 -13q-11 -11 -11 -37q0 -27 10 -37t36 -10h9z" />
    <glyph glyph-name="adieresis" unicode="&#xe4;" horiz-adv-x="643" 
d="M65 373q1 72 8 104t26 51q32 32 106 32h234q81 0 113 -33q19 -20 26.5 -51.5t7.5 -96.5v-379h-202v59q-48 -38 -77 -49t-69 -11h-67q-69 0 -97 28q-32 32 -32 128q0 105 35 140t133 35q81 0 174 -17v39q0 49 -9 58q-8 8 -33 8h-48q-25 0 -33 -8t-9 -37h-187zM115 619v151
h191v-151h-191zM360 619v151h191v-151h-191zM292 127q39 0 92 26v71h-62q-61 0 -74 -13q-11 -11 -11 -37q0 -27 10 -37t36 -10h9z" />
    <glyph glyph-name="aring" unicode="&#xe5;" horiz-adv-x="643" 
d="M65 373q1 72 8 104t26 51q32 32 106 32h234q81 0 113 -33q19 -20 26.5 -51.5t7.5 -96.5v-379h-202v59q-48 -38 -77 -49t-69 -11h-67q-69 0 -97 28q-32 32 -32 128q0 105 35 140t133 35q81 0 174 -17v39q0 49 -9 58q-8 8 -33 8h-48q-25 0 -33 -8t-9 -37h-187zM404 610
h-142q-43 0 -64 19q-28 25 -28 94t28 94q21 19 64 19h142q43 0 64 -19q28 -25 28 -94t-28 -94q-21 -19 -64 -19zM292 127q39 0 92 26v71h-62q-61 0 -74 -13q-11 -11 -11 -37q0 -27 10 -37t36 -10h9zM352 748h-38q-20 0 -25 -5q-6 -6 -6 -20t6 -20q5 -5 25 -5h38q20 0 25 5
q6 6 6 20t-6 20q-5 5 -25 5z" />
    <glyph glyph-name="ae" unicode="&#xe6;" horiz-adv-x="976" 
d="M210 330q81 0 174 -17v39q0 49 -9 58q-8 8 -33 8h-48q-25 0 -33 -8t-9 -37h-187q1 72 8 104t26 51q32 32 106 32h188q67 0 101 -46q33 46 101 46h184q44 0 68 -8t44 -28q27 -28 35 -73.5t8 -166.5v-9q0 -19 -6 -25.5t-26 -6.5h-317q1 -87 11 -99q7 -9 51 -9h47q46 0 53 9
q6 8 6 54h181q0 -124 -37 -161t-108 -37h-233q-44 0 -68 8t-44 28q-21 21 -33 46q-62 -53 -95 -68t-78 -15h-67q-69 0 -97 28q-32 32 -32 128q0 105 35 140t133 35zM596 416q-9 -10 -11 -84h159q0 73 -9 84q-8 9 -45 9h-43q-44 0 -51 -9zM292 127q39 0 99 29q-4 28 -6 68
h-63q-61 0 -74 -13q-11 -11 -11 -37q0 -27 10 -37t36 -10h9z" />
    <glyph glyph-name="ccedilla" unicode="&#xe7;" horiz-adv-x="602" 
d="M378 223h184q0 -83 -7.5 -123t-30.5 -64q-20 -20 -44 -28t-68 -8h-204q-44 0 -68 8t-44 28q-29 30 -41.5 83t-12.5 161t12.5 161t41.5 83q19 20 43.5 28t68.5 8h204q44 0 68 -8t44 -28q23 -24 31 -63t7 -116h-184q-2 51 -7 57q-8 9 -35 9h-49q-28 0 -35 -9
q-10 -12 -10 -122t10 -122q7 -9 35 -9h49q27 0 35 9q6 6 7 65zM358 -24q47 0 62 -15q19 -19 19 -95q0 -65 -19 -84q-16 -16 -65 -16h-141l-70 63v26h146q16 0 20 4t4 17t-4 17t-20 4h-49v79h117z" />
    <glyph glyph-name="egrave" unicode="&#xe8;" horiz-adv-x="628" 
d="M554 243h-317q1 -87 11 -99q7 -9 51 -9h47q46 0 53 9q6 8 6 54h181q0 -124 -37 -161t-108 -37h-233q-44 0 -68 8t-44 28q-30 31 -42 80t-12 164t12 164t42 80q19 20 43.5 28t68.5 8h223q44 0 68 -8t44 -28q27 -28 35 -73.5t8 -166.5v-9q0 -19 -6 -25.5t-26 -6.5zM403 618
h-131l-195 127v5h242l84 -127v-5zM248 416q-9 -10 -11 -84h159q0 73 -9 84q-8 9 -45 9h-43q-44 0 -51 -9z" />
    <glyph glyph-name="eacute" unicode="&#xe9;" horiz-adv-x="628" 
d="M554 243h-317q1 -87 11 -99q7 -9 51 -9h47q46 0 53 9q6 8 6 54h181q0 -124 -37 -161t-108 -37h-233q-44 0 -68 8t-44 28q-30 31 -42 80t-12 164t12 164t42 80q19 20 43.5 28t68.5 8h223q44 0 68 -8t44 -28q27 -28 35 -73.5t8 -166.5v-9q0 -19 -6 -25.5t-26 -6.5zM235 618
v5l84 127h242v-5l-195 -127h-131zM248 416q-9 -10 -11 -84h159q0 73 -9 84q-8 9 -45 9h-43q-44 0 -51 -9z" />
    <glyph glyph-name="ecircumflex" unicode="&#xea;" horiz-adv-x="628" 
d="M554 243h-317q1 -87 11 -99q7 -9 51 -9h47q46 0 53 9q6 8 6 54h181q0 -124 -37 -161t-108 -37h-233q-44 0 -68 8t-44 28q-30 31 -42 80t-12 164t12 164t42 80q19 20 43.5 28t68.5 8h223q44 0 68 -8t44 -28q27 -28 35 -73.5t8 -166.5v-9q0 -19 -6 -25.5t-26 -6.5zM373 618
l-54 47l-54 -47h-166v5l141 127h162l141 -127v-5h-170zM248 416q-9 -10 -11 -84h159q0 73 -9 84q-8 9 -45 9h-43q-44 0 -51 -9z" />
    <glyph glyph-name="edieresis" unicode="&#xeb;" horiz-adv-x="628" 
d="M554 243h-317q1 -87 11 -99q7 -9 51 -9h47q46 0 53 9q6 8 6 54h181q0 -124 -37 -161t-108 -37h-233q-44 0 -68 8t-44 28q-30 31 -42 80t-12 164t12 164t42 80q19 20 43.5 28t68.5 8h223q44 0 68 -8t44 -28q27 -28 35 -73.5t8 -166.5v-9q0 -19 -6 -25.5t-26 -6.5zM346 619
v151h191v-151h-191zM101 619v151h191v-151h-191zM248 416q-9 -10 -11 -84h159q0 73 -9 84q-8 9 -45 9h-43q-44 0 -51 -9z" />
    <glyph glyph-name="igrave" unicode="&#xec;" horiz-adv-x="320" 
d="M259 560v-560h-198v560h198zM244 618h-131l-195 127v5h242l84 -127v-5z" />
    <glyph glyph-name="iacute" unicode="&#xed;" horiz-adv-x="320" 
d="M259 560v-560h-198v560h198zM76 618v5l84 127h242v-5l-195 -127h-131z" />
    <glyph glyph-name="icircumflex" unicode="&#xee;" horiz-adv-x="320" 
d="M259 560v-560h-198v560h198zM214 618l-54 47l-54 -47h-166v5l141 127h162l141 -127v-5h-170z" />
    <glyph glyph-name="idieresis" unicode="&#xef;" horiz-adv-x="320" 
d="M259 560v-560h-198v560h198zM-58 619v151h191v-151h-191zM187 619v151h191v-151h-191z" />
    <glyph glyph-name="eth" unicode="&#xf0;" horiz-adv-x="608" 
d="M193 659l94 23l-46 73h154l37 -38l148 36v-124l-57 -14q26 -32 38 -63q15 -41 15 -272q0 -109 -12.5 -161.5t-41.5 -82.5q-20 -20 -44 -28t-68 -8h-218q-44 0 -68 8t-44 28q-28 29 -41 78t-13 136t13 136t41 78q19 20 43.5 28t68.5 8h39q39 0 68 -11t76 -48
q-2 67 -10 103q-3 12 -12 30l-160 -39v124zM366 155q10 12 10 125v57q-38 17 -71 17h-34q-28 0 -35 -9q-10 -12 -10 -95t10 -95q7 -9 35 -9h60q27 0 35 9z" />
    <glyph glyph-name="ntilde" unicode="&#xf1;" 
d="M260 0h-203v560h203v-83q53 54 81 69t71 15h49q73 0 104 -31q18 -18 25 -48t7 -94v-388h-203v358q0 28 -10 38t-35 10h-17q-29 0 -72 -14v-392zM129 623v62q0 49 19 68q18 18 54 18h29q25 0 53 -6l117 -29l18 33h110v-62q0 -49 -19 -68q-18 -18 -54 -18h-29q-25 0 -53 6
l-117 29l-18 -33h-110z" />
    <glyph glyph-name="ograve" unicode="&#xf2;" horiz-adv-x="630" 
d="M208 0q-44 0 -68 8t-44 28q-29 30 -41.5 83t-12.5 161t12.5 161t41.5 83q19 20 43.5 28t68.5 8h214q44 0 68 -8t44 -28q29 -30 41.5 -83t12.5 -161q0 -109 -12.5 -161.5t-41.5 -82.5q-20 -20 -44 -28t-68 -8h-214zM242 280q0 -110 10 -122q7 -9 35 -9h56q27 0 35 9
q10 12 10 122t-10 122q-8 9 -35 9h-56q-28 0 -35 -9q-10 -12 -10 -122zM399 618h-131l-195 127v5h242l84 -127v-5z" />
    <glyph glyph-name="oacute" unicode="&#xf3;" horiz-adv-x="630" 
d="M208 0q-44 0 -68 8t-44 28q-29 30 -41.5 83t-12.5 161t12.5 161t41.5 83q19 20 43.5 28t68.5 8h214q44 0 68 -8t44 -28q29 -30 41.5 -83t12.5 -161q0 -109 -12.5 -161.5t-41.5 -82.5q-20 -20 -44 -28t-68 -8h-214zM242 280q0 -110 10 -122q7 -9 35 -9h56q27 0 35 9
q10 12 10 122t-10 122q-8 9 -35 9h-56q-28 0 -35 -9q-10 -12 -10 -122zM231 618v5l84 127h242v-5l-195 -127h-131z" />
    <glyph glyph-name="ocircumflex" unicode="&#xf4;" horiz-adv-x="630" 
d="M208 0q-44 0 -68 8t-44 28q-29 30 -41.5 83t-12.5 161t12.5 161t41.5 83q19 20 43.5 28t68.5 8h214q44 0 68 -8t44 -28q29 -30 41.5 -83t12.5 -161q0 -109 -12.5 -161.5t-41.5 -82.5q-20 -20 -44 -28t-68 -8h-214zM369 618l-54 47l-54 -47h-166v5l141 127h162l141 -127
v-5h-170zM242 280q0 -110 10 -122q7 -9 35 -9h56q27 0 35 9q10 12 10 122t-10 122q-8 9 -35 9h-56q-28 0 -35 -9q-10 -12 -10 -122z" />
    <glyph glyph-name="otilde" unicode="&#xf5;" horiz-adv-x="630" 
d="M208 0q-44 0 -68 8t-44 28q-29 30 -41.5 83t-12.5 161t12.5 161t41.5 83q19 20 43.5 28t68.5 8h214q44 0 68 -8t44 -28q29 -30 41.5 -83t12.5 -161q0 -109 -12.5 -161.5t-41.5 -82.5q-20 -20 -44 -28t-68 -8h-214zM242 280q0 -110 10 -122q7 -9 35 -9h56q27 0 35 9
q10 12 10 122t-10 122q-8 9 -35 9h-56q-28 0 -35 -9q-10 -12 -10 -122zM117 623v62q0 49 19 68q18 18 54 18h29q25 0 53 -6l117 -29l18 33h110v-62q0 -49 -19 -68q-18 -18 -54 -18h-29q-25 0 -53 6l-117 29l-18 -33h-110z" />
    <glyph glyph-name="odieresis" unicode="&#xf6;" horiz-adv-x="630" 
d="M208 0q-44 0 -68 8t-44 28q-29 30 -41.5 83t-12.5 161t12.5 161t41.5 83q19 20 43.5 28t68.5 8h214q44 0 68 -8t44 -28q29 -30 41.5 -83t12.5 -161q0 -109 -12.5 -161.5t-41.5 -82.5q-20 -20 -44 -28t-68 -8h-214zM242 280q0 -110 10 -122q7 -9 35 -9h56q27 0 35 9
q10 12 10 122t-10 122q-8 9 -35 9h-56q-28 0 -35 -9q-10 -12 -10 -122zM97 619v151h191v-151h-191zM342 619v151h191v-151h-191z" />
    <glyph glyph-name="divide" unicode="&#xf7;" horiz-adv-x="526" 
d="M40 294v138h446v-138h-446zM180 107v143h166v-143h-166zM180 480v143h166v-143h-166z" />
    <glyph glyph-name="oslash" unicode="&#xf8;" horiz-adv-x="630" 
d="M560 610l-38 -75l12 -11q29 -30 41.5 -83t12.5 -161q0 -109 -12.5 -161.5t-41.5 -82.5q-20 -20 -44 -28t-68 -8h-167l-25 -50h-159l38 74q-9 8 -13 12q-29 30 -41.5 83t-12.5 161t12.5 161t41.5 83q19 20 43.5 28t68.5 8h167l26 50h159zM398 280q0 49 -1 66l-87 -197h43
q27 0 35 9q10 12 10 122zM232 280v-66l87 197h-42q-28 0 -35 -9q-10 -12 -10 -122z" />
    <glyph glyph-name="ugrave" unicode="&#xf9;" 
d="M394 560h203v-560h-203v82q-54 -53 -81.5 -68t-70.5 -15h-49q-73 0 -104 31q-18 18 -25 48t-7 94v388h203v-361q0 -28 10 -38t35 -10h17q26 0 72 13v396zM411 618h-131l-195 127v5h242l84 -127v-5z" />
    <glyph glyph-name="uacute" unicode="&#xfa;" 
d="M394 560h203v-560h-203v82q-54 -53 -81.5 -68t-70.5 -15h-49q-73 0 -104 31q-18 18 -25 48t-7 94v388h203v-361q0 -28 10 -38t35 -10h17q26 0 72 13v396zM243 618v5l84 127h242v-5l-195 -127h-131z" />
    <glyph glyph-name="ucircumflex" unicode="&#xfb;" 
d="M394 560h203v-560h-203v82q-54 -53 -81.5 -68t-70.5 -15h-49q-73 0 -104 31q-18 18 -25 48t-7 94v388h203v-361q0 -28 10 -38t35 -10h17q26 0 72 13v396zM381 618l-54 47l-54 -47h-166v5l141 127h162l141 -127v-5h-170z" />
    <glyph glyph-name="udieresis" unicode="&#xfc;" 
d="M394 560h203v-560h-203v82q-54 -53 -81.5 -68t-70.5 -15h-49q-73 0 -104 31q-18 18 -25 48t-7 94v388h203v-361q0 -28 10 -38t35 -10h17q26 0 72 13v396zM354 619v151h191v-151h-191zM109 619v151h191v-151h-191z" />
    <glyph glyph-name="yacute" unicode="&#xfd;" horiz-adv-x="643" 
d="M17 560h215l104 -315h8l78 315h207l-213 -632q-19 -55 -57.5 -77.5t-111.5 -22.5q-62 0 -156 8v145h108q21 0 29 20l6 18zM248 618v5l84 127h242v-5l-195 -127h-131z" />
    <glyph glyph-name="thorn" unicode="&#xfe;" horiz-adv-x="651" 
d="M57 -170v925h203v-274q52 50 78.5 65t62.5 15h43q82 0 117 -35q27 -27 37.5 -79t10.5 -167q0 -111 -13 -163t-43 -82q-36 -36 -113 -36h-48q-38 0 -65 11.5t-67 48.5v-229h-203zM324 409q-27 0 -64 -14v-232q33 -12 59 -12h29q33 0 45 12q9 9 12.5 31t3.5 86t-3.5 86
t-12.5 31q-12 12 -45 12h-24z" />
    <glyph glyph-name="ydieresis" unicode="&#xff;" horiz-adv-x="643" 
d="M17 560h215l104 -315h8l78 315h207l-213 -632q-19 -55 -57.5 -77.5t-111.5 -22.5q-62 0 -156 8v145h108q21 0 29 20l6 18zM359 619v151h191v-151h-191zM114 619v151h191v-151h-191z" />
    <glyph glyph-name="Amacron" unicode="&#x100;" horiz-adv-x="758" 
d="M524 0l-44 151h-215l-43 -151h-215l212 637q14 42 26.5 54t47.5 12h172q35 0 48 -12.5t26 -53.5l212 -637h-227zM186 760v130h386v-130h-386zM367 507l-60 -206h131l-60 206h-11z" />
    <glyph glyph-name="amacron" unicode="&#x101;" horiz-adv-x="643" 
d="M65 373q1 72 8 104t26 51q32 32 106 32h234q81 0 113 -33q19 -20 26.5 -51.5t7.5 -96.5v-379h-202v59q-48 -38 -77 -49t-69 -11h-67q-69 0 -97 28q-32 32 -32 128q0 105 35 140t133 35q81 0 174 -17v39q0 49 -9 58q-8 8 -33 8h-48q-25 0 -33 -8t-9 -37h-187zM140 620v130
h386v-130h-386zM292 127q39 0 92 26v71h-62q-61 0 -74 -13q-11 -11 -11 -37q0 -27 10 -37t36 -10h9z" />
    <glyph glyph-name="Abreve" unicode="&#x102;" horiz-adv-x="758" 
d="M524 0l-44 151h-215l-43 -151h-215l212 637q14 42 26.5 54t47.5 12h172q35 0 48 -12.5t26 -53.5l212 -637h-227zM380 852q25 0 36 8.5t14 29.5h144q-5 -139 -195 -139t-195 139h146q3 -21 14 -29.5t36 -8.5zM367 507l-60 -206h131l-60 206h-11z" />
    <glyph glyph-name="abreve" unicode="&#x103;" horiz-adv-x="643" 
d="M65 373q1 72 8 104t26 51q32 32 106 32h234q81 0 113 -33q19 -20 26.5 -51.5t7.5 -96.5v-379h-202v59q-48 -38 -77 -49t-69 -11h-67q-69 0 -97 28q-32 32 -32 128q0 105 35 140t133 35q81 0 174 -17v39q0 49 -9 58q-8 8 -33 8h-48q-25 0 -33 -8t-9 -37h-187zM334 712
q25 0 36 8.5t14 29.5h144q-5 -139 -195 -139t-195 139h146q3 -21 14 -29.5t36 -8.5zM292 127q39 0 92 26v71h-62q-61 0 -74 -13q-11 -11 -11 -37q0 -27 10 -37t36 -10h9z" />
    <glyph glyph-name="Aogonek" unicode="&#x104;" horiz-adv-x="758" 
d="M654 -58h109q0 -61 -5.5 -86t-19.5 -38q-17 -16 -62 -16h-124q-45 0 -62 16q-25 22 -25 74q0 50 15 71q11 17 43 38l-43 150h-215l-43 -151h-215l212 637q14 42 26.5 54t47.5 12h172q35 0 48 -12.5t26 -53.5l212 -637h-130q-21 -28 -27 -41t-6 -28q0 -19 4 -23t14 -4h29
q10 0 14 4q5 5 5 34zM367 507l-60 -206h131l-60 206h-11z" />
    <glyph glyph-name="aogonek" unicode="&#x105;" horiz-adv-x="643" 
d="M65 373q1 72 8 104t26 51q32 32 106 32h234q81 0 113 -33q19 -20 26.5 -51.5t7.5 -96.5v-379h-112q-21 -28 -27 -41t-6 -28q0 -19 4 -23t14 -4h29q10 0 14 4q5 5 5 34h109q0 -61 -5.5 -86t-19.5 -38q-17 -16 -62 -16h-124q-45 0 -62 16q-25 22 -25 74q0 50 15 71
q13 19 51 43v53q-48 -38 -77 -49t-69 -11h-67q-69 0 -97 28q-32 32 -32 128q0 105 35 140t133 35q81 0 174 -17v39q0 49 -9 58q-8 8 -33 8h-48q-25 0 -33 -8t-9 -37h-187zM292 127q39 0 92 26v71h-62q-61 0 -74 -13q-11 -11 -11 -37q0 -27 10 -37t36 -10h9z" />
    <glyph glyph-name="Cacute" unicode="&#x106;" horiz-adv-x="716" 
d="M679 280q-1 -105 -13.5 -159t-40.5 -81q-40 -40 -137 -40h-234q-98 0 -138 40q-76 74 -76 310t76 310q40 40 138 40h234q97 0 137 -40q27 -27 40 -80.5t14 -156.5h-201q-3 92 -17 106q-8 8 -46 8h-89q-38 0 -46 -8q-19 -19 -19 -179t19 -179q8 -8 46 -8h89q38 0 46 8
q14 14 17 109h201zM284 758v5l84 127h242v-5l-195 -127h-131z" />
    <glyph glyph-name="cacute" unicode="&#x107;" horiz-adv-x="602" 
d="M378 223h184q0 -83 -7.5 -123t-30.5 -64q-20 -20 -44 -28t-68 -8h-204q-44 0 -68 8t-44 28q-29 30 -41.5 83t-12.5 161t12.5 161t41.5 83q19 20 43.5 28t68.5 8h204q44 0 68 -8t44 -28q23 -24 31 -63t7 -116h-184q-2 51 -7 57q-8 9 -35 9h-49q-28 0 -35 -9
q-10 -12 -10 -122t10 -122q7 -9 35 -9h49q27 0 35 9q6 6 7 65zM228 618v5l84 127h242v-5l-195 -127h-131z" />
    <glyph glyph-name="Cdotaccent" unicode="&#x10a;" horiz-adv-x="716" 
d="M679 280q-1 -105 -13.5 -159t-40.5 -81q-40 -40 -137 -40h-234q-98 0 -138 40q-76 74 -76 310t76 310q40 40 138 40h234q97 0 137 -40q27 -27 40 -80.5t14 -156.5h-201q-3 92 -17 106q-8 8 -46 8h-89q-38 0 -46 -8q-19 -19 -19 -179t19 -179q8 -8 46 -8h89q38 0 46 8
q14 14 17 109h201zM269 768v152h199v-152h-199z" />
    <glyph glyph-name="cdotaccent" unicode="&#x10b;" horiz-adv-x="602" 
d="M378 223h184q0 -83 -7.5 -123t-30.5 -64q-20 -20 -44 -28t-68 -8h-204q-44 0 -68 8t-44 28q-29 30 -41.5 83t-12.5 161t12.5 161t41.5 83q19 20 43.5 28t68.5 8h204q44 0 68 -8t44 -28q23 -24 31 -63t7 -116h-184q-2 51 -7 57q-8 9 -35 9h-49q-28 0 -35 -9
q-10 -12 -10 -122t10 -122q7 -9 35 -9h49q27 0 35 9q6 6 7 65zM213 628v152h199v-152h-199z" />
    <glyph glyph-name="Ccaron" unicode="&#x10c;" horiz-adv-x="716" 
d="M679 280q-1 -105 -13.5 -159t-40.5 -81q-40 -40 -137 -40h-234q-98 0 -138 40q-76 74 -76 310t76 310q40 40 138 40h234q97 0 137 -40q27 -27 40 -80.5t14 -156.5h-201q-3 92 -17 106q-8 8 -46 8h-89q-38 0 -46 -8q-19 -19 -19 -179t19 -179q8 -8 46 -8h89q38 0 46 8
q14 14 17 109h201zM284 758l-141 127v5h170l54 -47l54 47h166v-5l-141 -127h-162z" />
    <glyph glyph-name="ccaron" unicode="&#x10d;" horiz-adv-x="602" 
d="M378 223h184q0 -83 -7.5 -123t-30.5 -64q-20 -20 -44 -28t-68 -8h-204q-44 0 -68 8t-44 28q-29 30 -41.5 83t-12.5 161t12.5 161t41.5 83q19 20 43.5 28t68.5 8h204q44 0 68 -8t44 -28q23 -24 31 -63t7 -116h-184q-2 51 -7 57q-8 9 -35 9h-49q-28 0 -35 -9
q-10 -12 -10 -122t10 -122q7 -9 35 -9h49q27 0 35 9q6 6 7 65zM228 618l-141 127v5h170l54 -47l54 47h166v-5l-141 -127h-162z" />
    <glyph glyph-name="Dcaron" unicode="&#x10e;" horiz-adv-x="760" 
d="M67 700h361q83 0 132.5 -13.5t81.5 -45.5q38 -38 54.5 -101.5t16.5 -189.5t-16.5 -190t-54.5 -102q-31 -31 -80.5 -44.5t-133.5 -13.5h-361v700zM492 350q0 156 -19 176q-16 16 -78 16h-113v-384h113q61 0 78 17q19 19 19 175zM306 758l-141 127v5h170l54 -47l54 47h166
v-5l-141 -127h-162z" />
    <glyph glyph-name="dcaron" unicode="&#x10f;" horiz-adv-x="796" 
d="M593 0h-203v79q-51 -50 -78 -65t-63 -15h-42q-82 0 -117 35q-27 27 -37.5 79t-10.5 167q0 111 13 163t43 82q36 36 113 36h47q37 0 64 -12t68 -48v254h203v-755zM633 705v50h158v-109q0 -78 -34 -128l-58 -87l-66 27l26 100q4 18 4 27q0 15 -4 28zM326 151q29 0 64 14
v232q-33 12 -59 12h-28q-33 0 -45 -12q-9 -9 -12.5 -31t-3.5 -86t3.5 -86t12.5 -31q12 -12 45 -12h23z" />
    <glyph glyph-name="Dcroat" unicode="&#x110;" horiz-adv-x="770" 
d="M77 700h361q83 0 132.5 -13.5t81.5 -45.5q38 -38 54.5 -101.5t16.5 -189.5t-16.5 -190t-54.5 -102q-31 -31 -80.5 -44.5t-133.5 -13.5h-361v280h-74v152h74v268zM502 350q0 156 -19 176q-16 16 -78 16h-113v-110h102v-152h-102v-122h113q61 0 78 17q19 19 19 175z" />
    <glyph glyph-name="dcroat" unicode="&#x111;" horiz-adv-x="650" 
d="M593 0h-203v79q-51 -50 -78 -65t-63 -15h-42q-82 0 -117 35q-27 27 -37.5 78.5t-10.5 162.5q0 108 13 159t43 81q36 36 113 36h47q37 0 64 -12t68 -48v81h-109v128h109v55h203v-55h64v-140h-64v-560zM258 387q-9 -9 -12.5 -30t-3.5 -82t3.5 -82t12.5 -30q12 -12 45 -12
h23q29 0 64 14v222q-33 12 -59 12h-28q-33 0 -45 -12z" />
    <glyph glyph-name="Emacron" unicode="&#x112;" horiz-adv-x="682" 
d="M639 162v-162h-572v700h572v-162h-357v-108h260v-150h-260v-118h357zM160 760v130h386v-130h-386z" />
    <glyph glyph-name="emacron" unicode="&#x113;" horiz-adv-x="628" 
d="M554 243h-317q1 -87 11 -99q7 -9 51 -9h47q46 0 53 9q6 8 6 54h181q0 -124 -37 -161t-108 -37h-233q-44 0 -68 8t-44 28q-30 31 -42 80t-12 164t12 164t42 80q19 20 43.5 28t68.5 8h223q44 0 68 -8t44 -28q27 -28 35 -73.5t8 -166.5v-9q0 -19 -6 -25.5t-26 -6.5zM126 620
v130h386v-130h-386zM248 416q-9 -10 -11 -84h159q0 73 -9 84q-8 9 -45 9h-43q-44 0 -51 -9z" />
    <glyph glyph-name="Ebreve" unicode="&#x114;" horiz-adv-x="682" 
d="M639 162v-162h-572v700h572v-162h-357v-108h260v-150h-260v-118h357zM354 852q25 0 36 8.5t14 29.5h144q-5 -139 -195 -139t-195 139h146q3 -21 14 -29.5t36 -8.5z" />
    <glyph glyph-name="ebreve" unicode="&#x115;" horiz-adv-x="628" 
d="M554 243h-317q1 -87 11 -99q7 -9 51 -9h47q46 0 53 9q6 8 6 54h181q0 -124 -37 -161t-108 -37h-233q-44 0 -68 8t-44 28q-30 31 -42 80t-12 164t12 164t42 80q19 20 43.5 28t68.5 8h223q44 0 68 -8t44 -28q27 -28 35 -73.5t8 -166.5v-9q0 -19 -6 -25.5t-26 -6.5zM320 712
q25 0 36 8.5t14 29.5h144q-5 -139 -195 -139t-195 139h146q3 -21 14 -29.5t36 -8.5zM248 416q-9 -10 -11 -84h159q0 73 -9 84q-8 9 -45 9h-43q-44 0 -51 -9z" />
    <glyph glyph-name="Edotaccent" unicode="&#x116;" horiz-adv-x="682" 
d="M639 162v-162h-572v700h572v-162h-357v-108h260v-150h-260v-118h357zM254 768v152h199v-152h-199z" />
    <glyph glyph-name="edotaccent" unicode="&#x117;" horiz-adv-x="628" 
d="M554 243h-317q1 -87 11 -99q7 -9 51 -9h47q46 0 53 9q6 8 6 54h181q0 -124 -37 -161t-108 -37h-233q-44 0 -68 8t-44 28q-30 31 -42 80t-12 164t12 164t42 80q19 20 43.5 28t68.5 8h223q44 0 68 -8t44 -28q27 -28 35 -73.5t8 -166.5v-9q0 -19 -6 -25.5t-26 -6.5zM220 628
v152h199v-152h-199zM248 416q-9 -10 -11 -84h159q0 73 -9 84q-8 9 -45 9h-43q-44 0 -51 -9z" />
    <glyph glyph-name="Eogonek" unicode="&#x118;" horiz-adv-x="682" 
d="M529 -58h109q0 -61 -5.5 -86t-19.5 -38q-17 -16 -62 -16h-124q-45 0 -62 16q-25 22 -25 74q0 50 15 71q14 19 41 37h-329v700h572v-162h-357v-108h260v-150h-260v-118h357v-162h-143q-21 -28 -27 -41t-6 -28q0 -19 4 -23t14 -4h29q10 0 14 4q5 5 5 34z" />
    <glyph glyph-name="eogonek" unicode="&#x119;" horiz-adv-x="628" 
d="M467 -58h109q0 -61 -5.5 -86t-19.5 -38q-17 -16 -62 -16h-124q-45 0 -62 16q-25 22 -25 74q0 50 15 71q14 19 41 37h-126q-44 0 -68 8t-44 28q-30 31 -42 80t-12 164t12 164t42 80q19 20 43.5 28t68.5 8h223q44 0 68 -8t44 -28q27 -28 35 -73.5t8 -166.5v-9
q0 -19 -6 -25.5t-26 -6.5h-317q1 -87 11 -99q7 -9 51 -9h47q46 0 53 9q6 8 6 54h181q0 -124 -37 -161t-108 -37h-7q-21 -28 -27 -41t-6 -28q0 -19 4 -23t14 -4h29q10 0 14 4q5 5 5 34zM248 416q-9 -10 -11 -84h159q0 73 -9 84q-8 9 -45 9h-43q-44 0 -51 -9z" />
    <glyph glyph-name="Ecaron" unicode="&#x11a;" horiz-adv-x="682" 
d="M639 162v-162h-572v700h572v-162h-357v-108h260v-150h-260v-118h357zM269 758l-141 127v5h170l54 -47l54 47h166v-5l-141 -127h-162z" />
    <glyph glyph-name="ecaron" unicode="&#x11b;" horiz-adv-x="628" 
d="M554 243h-317q1 -87 11 -99q7 -9 51 -9h47q46 0 53 9q6 8 6 54h181q0 -124 -37 -161t-108 -37h-233q-44 0 -68 8t-44 28q-30 31 -42 80t-12 164t12 164t42 80q19 20 43.5 28t68.5 8h223q44 0 68 -8t44 -28q27 -28 35 -73.5t8 -166.5v-9q0 -19 -6 -25.5t-26 -6.5zM235 618
l-141 127v5h170l54 -47l54 47h166v-5l-141 -127h-162zM248 416q-9 -10 -11 -84h159q0 73 -9 84q-8 9 -45 9h-43q-44 0 -51 -9z" />
    <glyph glyph-name="Gbreve" unicode="&#x11e;" horiz-adv-x="740" 
d="M256 700h233q107 0 144 -36q28 -27 42.5 -73t16.5 -131h-206q-1 51 -21 71q-8 8 -44 8h-90q-38 0 -46 -8q-22 -22 -22 -181q0 -161 22 -183q8 -8 46 -8h95q37 0 45 8q21 21 21 76v5h-150v145h356v-85q0 -116 -18 -174.5t-52 -92.5q-41 -41 -140 -41h-232q-98 0 -138 40
q-76 74 -76 310t76 310q40 40 138 40zM371 852q25 0 36 8.5t14 29.5h144q-5 -139 -195 -139t-195 139h146q3 -21 14 -29.5t36 -8.5z" />
    <glyph glyph-name="gbreve" unicode="&#x11f;" horiz-adv-x="649" 
d="M445 -170h-267q-60 0 -88 28q-16 16 -22.5 46t-6.5 96h180q0 -23 6 -29q7 -7 32 -7h68q25 0 33 8q9 9 9 60v87q-49 -47 -76 -59.5t-65 -12.5h-41q-82 0 -117 35q-27 27 -37.5 77.5t-10.5 144.5q0 91 13.5 141.5t42.5 79.5q36 36 113 36h46q37 0 64 -12t68 -48v59h203
v-542q0 -68 -8 -100.5t-27 -53.5q-31 -34 -112 -34zM321 712q25 0 36 8.5t14 29.5h144q-5 -139 -195 -139t-195 139h146q3 -21 14 -29.5t36 -8.5zM325 191q29 0 64 14v192q-33 12 -59 12h-27q-33 0 -45 -12q-16 -16 -16 -97t16 -97q12 -12 45 -12h22z" />
    <glyph glyph-name="Gdotaccent" unicode="&#x120;" horiz-adv-x="740" 
d="M256 700h233q107 0 144 -36q28 -27 42.5 -73t16.5 -131h-206q-1 51 -21 71q-8 8 -44 8h-90q-38 0 -46 -8q-22 -22 -22 -181q0 -161 22 -183q8 -8 46 -8h95q37 0 45 8q21 21 21 76v5h-150v145h356v-85q0 -116 -18 -174.5t-52 -92.5q-41 -41 -140 -41h-232q-98 0 -138 40
q-76 74 -76 310t76 310q40 40 138 40zM271 768v152h199v-152h-199z" />
    <glyph glyph-name="gdotaccent" unicode="&#x121;" horiz-adv-x="649" 
d="M445 -170h-267q-60 0 -88 28q-16 16 -22.5 46t-6.5 96h180q0 -23 6 -29q7 -7 32 -7h68q25 0 33 8q9 9 9 60v87q-49 -47 -76 -59.5t-65 -12.5h-41q-82 0 -117 35q-27 27 -37.5 77.5t-10.5 144.5q0 91 13.5 141.5t42.5 79.5q36 36 113 36h46q37 0 64 -12t68 -48v59h203
v-542q0 -68 -8 -100.5t-27 -53.5q-31 -34 -112 -34zM325 191q29 0 64 14v192q-33 12 -59 12h-27q-33 0 -45 -12q-16 -16 -16 -97t16 -97q12 -12 45 -12h22zM221 628v152h199v-152h-199z" />
    <glyph glyph-name="Gcommaaccent" unicode="&#x122;" horiz-adv-x="740" 
d="M256 700h233q107 0 144 -36q28 -27 42.5 -73t16.5 -131h-206q-1 51 -21 71q-8 8 -44 8h-90q-38 0 -46 -8q-22 -22 -22 -181q0 -161 22 -183q8 -8 46 -8h95q37 0 45 8q21 21 21 76v5h-150v145h356v-85q0 -116 -18 -174.5t-52 -92.5q-41 -41 -140 -41h-232q-98 0 -138 40
q-76 74 -76 310t76 310q40 40 138 40zM295 -70h148v-119q0 -37 -10 -59.5t-36 -44.5l-79 -68l-44 35l57 72q13 18 13 35v1h-49v148z" />
    <glyph glyph-name="gcommaaccent" unicode="&#x123;" horiz-adv-x="649" 
d="M445 -170h-267q-60 0 -88 28q-16 16 -22.5 46t-6.5 96h180q0 -23 6 -29q7 -7 32 -7h68q25 0 33 8q9 9 9 60v87q-49 -47 -76 -59.5t-65 -12.5h-41q-82 0 -117 35q-27 27 -37.5 77.5t-10.5 144.5q0 91 13.5 141.5t42.5 79.5q36 36 113 36h46q37 0 64 -12t68 -48v59h203
v-542q0 -68 -8 -100.5t-27 -53.5q-31 -34 -112 -34zM391 627h-148v119q0 37 10 59.5t36 44.5l79 68l44 -35l-57 -72q-13 -18 -13 -35v-1h49v-148zM325 191q29 0 64 14v192q-33 12 -59 12h-27q-33 0 -45 -12q-16 -16 -16 -97t16 -97q12 -12 45 -12h22z" />
    <glyph glyph-name="Hbar" unicode="&#x126;" horiz-adv-x="820" 
d="M742 700v-85h73v-152h-73v-463h-215v221h-234v-221h-215v463h-73v152h73v85h215v-85h234v85h215zM293 387h234v86h-234v-86z" />
    <glyph glyph-name="hbar" unicode="&#x127;" 
d="M260 0h-203v560h-64v140h64v55h203v-55h109v-128h-109v-105q53 54 81 69t71 15h49q73 0 104 -31q18 -18 25 -48t7 -94v-378h-203v348q0 28 -10 38t-35 10h-17q-29 0 -72 -14v-382z" />
    <glyph glyph-name="Imacron" unicode="&#x12a;" horiz-adv-x="355" 
d="M285 0h-215v700h215v-700zM-16 760v130h386v-130h-386z" />
    <glyph glyph-name="imacron" unicode="&#x12b;" horiz-adv-x="320" 
d="M259 560v-560h-198v560h198zM-33 620v130h386v-130h-386z" />
    <glyph glyph-name="Ibreve" unicode="&#x12c;" horiz-adv-x="355" 
d="M285 0h-215v700h215v-700zM178 852q25 0 36 8.5t14 29.5h144q-5 -139 -195 -139t-195 139h146q3 -21 14 -29.5t36 -8.5z" />
    <glyph glyph-name="ibreve" unicode="&#x12d;" horiz-adv-x="320" 
d="M259 560v-560h-198v560h198zM161 712q25 0 36 8.5t14 29.5h144q-5 -139 -195 -139t-195 139h146q3 -21 14 -29.5t36 -8.5z" />
    <glyph glyph-name="Iogonek" unicode="&#x12e;" horiz-adv-x="355" 
d="M285 0h-120q-15 -22 -19 -31q-5 -11 -5 -38q0 -19 4 -23t14 -4h30q10 0 14 4q5 5 5 34h109q0 -61 -5.5 -86t-19.5 -38q-17 -16 -62 -16h-124q-45 0 -62 16q-25 22 -25 79q0 40 17 67q11 18 34 36v700h215v-700z" />
    <glyph glyph-name="iogonek" unicode="&#x12f;" horiz-adv-x="320" 
d="M259 560v-560h-105q-16 -22 -21 -33q-6 -13 -6 -32q0 -23 4 -27t14 -4h29q10 0 14 4q5 5 5 34h109q0 -61 -5.5 -86t-19.5 -38q-17 -16 -62 -16h-124q-45 0 -62 16q-25 22 -25 78q0 48 15 69q11 16 42 37v558h198zM267 785v-152h-214v152h214z" />
    <glyph glyph-name="Idotaccent" unicode="&#x130;" horiz-adv-x="355" 
d="M285 0h-215v700h215v-700zM78 768v152h199v-152h-199z" />
    <glyph glyph-name="dotlessi" unicode="&#x131;" horiz-adv-x="320" 
d="M259 560v-560h-198v560h198z" />
    <glyph glyph-name="Kcommaaccent" unicode="&#x136;" horiz-adv-x="781" 
d="M526 700h232l-250 -330l266 -370h-251l-189 279h-27v-279h-215v700h215v-269h25zM358 -60h148v-119q0 -37 -10 -59.5t-36 -44.5l-79 -68l-44 35l57 72q13 18 13 35v1h-49v148z" />
    <glyph glyph-name="kcommaaccent" unicode="&#x137;" horiz-adv-x="644" 
d="M260 0h-203v755h203v-407h26l137 212h210l-177 -266l188 -294h-230l-127 207h-27v-207zM261 -60h148v-119q0 -37 -10 -59.5t-36 -44.5l-79 -68l-44 35l57 72q13 18 13 35v1h-49v148z" />
    <glyph glyph-name="Lacute" unicode="&#x139;" horiz-adv-x="630" 
d="M282 700v-539h326v-161h-541v700h215zM93 758v5l84 127h242v-5l-195 -127h-131z" />
    <glyph glyph-name="lacute" unicode="&#x13a;" horiz-adv-x="311" 
d="M257 0h-203v755h203v-755zM61 803v5l84 127h242v-5l-195 -127h-131z" />
    <glyph glyph-name="Lcommaaccent" unicode="&#x13b;" horiz-adv-x="630" 
d="M282 700v-539h326v-161h-541v700h215zM262 -70h148v-119q0 -37 -10 -59.5t-36 -44.5l-79 -68l-44 35l57 72q13 18 13 35v1h-49v148z" />
    <glyph glyph-name="lcommaaccent" unicode="&#x13c;" horiz-adv-x="311" 
d="M257 0h-203v755h203v-755zM80 -70h148v-119q0 -37 -10 -59.5t-36 -44.5l-79 -68l-44 35l57 72q13 18 13 35v1h-49v148z" />
    <glyph glyph-name="Lcaron" unicode="&#x13d;" horiz-adv-x="630" 
d="M282 700v-539h326v-161h-541v700h215zM342 650v50h158v-109q0 -78 -34 -128l-58 -87l-66 27l26 100q4 18 4 27q0 15 -4 28z" />
    <glyph glyph-name="lcaron" unicode="&#x13e;" horiz-adv-x="458" 
d="M257 0h-203v755h203v-755zM295 707v50h158v-109q0 -78 -34 -128l-58 -87l-66 27l26 100q4 18 4 27q0 15 -4 28z" />
    <glyph glyph-name="Ldot" unicode="&#x13f;" horiz-adv-x="630" 
d="M390 330v152h199v-152h-199zM282 700v-539h326v-161h-541v700h215z" />
    <glyph glyph-name="ldot" unicode="&#x140;" horiz-adv-x="465" 
d="M464 278h-152v199h152v-199zM257 0h-203v755h203v-755z" />
    <glyph glyph-name="Lslash" unicode="&#x141;" horiz-adv-x="644" 
d="M296 700v-245l128 31v-152l-128 -31v-142h326v-161h-541v251l-69 -16v152l69 16v297h215z" />
    <glyph glyph-name="lslash" unicode="&#x142;" horiz-adv-x="343" 
d="M273 0h-203v286l-67 -16v152l67 16v317h203v-268l67 16v-152l-67 -16v-335z" />
    <glyph glyph-name="Nacute" unicode="&#x143;" horiz-adv-x="799" 
d="M732 700v-700h-149q-34 0 -54 11t-38 40l-216 349h-5v-400h-203v700h183q34 0 54.5 -11t37.5 -40l182 -307h5v358h203zM315 758v5l84 127h242v-5l-195 -127h-131z" />
    <glyph glyph-name="nacute" unicode="&#x144;" 
d="M260 0h-203v560h203v-83q53 54 81 69t71 15h49q73 0 104 -31q18 -18 25 -48t7 -94v-388h-203v358q0 28 -10 38t-35 10h-17q-29 0 -72 -14v-392zM243 618v5l84 127h242v-5l-195 -127h-131z" />
    <glyph glyph-name="Ncommaaccent" unicode="&#x145;" horiz-adv-x="799" 
d="M732 700v-700h-149q-34 0 -54 11t-38 40l-216 349h-5v-400h-203v700h183q34 0 54.5 -11t37.5 -40l182 -307h5v358h203zM324 -60h148v-119q0 -37 -10 -59.5t-36 -44.5l-79 -68l-44 35l57 72q13 18 13 35v1h-49v148z" />
    <glyph glyph-name="ncommaaccent" unicode="&#x146;" 
d="M260 0h-203v560h203v-83q53 54 81 69t71 15h49q73 0 104 -31q18 -18 25 -48t7 -94v-388h-203v358q0 28 -10 38t-35 10h-17q-29 0 -72 -14v-392zM252 -60h148v-119q0 -37 -10 -59.5t-36 -44.5l-79 -68l-44 35l57 72q13 18 13 35v1h-49v148z" />
    <glyph glyph-name="Ncaron" unicode="&#x147;" horiz-adv-x="799" 
d="M732 700v-700h-149q-34 0 -54 11t-38 40l-216 349h-5v-400h-203v700h183q34 0 54.5 -11t37.5 -40l182 -307h5v358h203zM315 758l-141 127v5h170l54 -47l54 47h166v-5l-141 -127h-162z" />
    <glyph glyph-name="ncaron" unicode="&#x148;" 
d="M260 0h-203v560h203v-83q53 54 81 69t71 15h49q73 0 104 -31q18 -18 25 -48t7 -94v-388h-203v358q0 28 -10 38t-35 10h-17q-29 0 -72 -14v-392zM243 618l-141 127v5h170l54 -47l54 47h166v-5l-141 -127h-162z" />
    <glyph glyph-name="Omacron" unicode="&#x14c;" horiz-adv-x="745" 
d="M256 700h233q98 0 138 -40q76 -74 76 -310t-76 -310q-40 -40 -138 -40h-233q-98 0 -138 40q-76 74 -76 310t76 310q40 40 138 40zM263 350q0 -160 19 -179q8 -8 46 -8h89q38 0 46 8q19 19 19 179t-19 179q-8 8 -46 8h-89q-38 0 -46 -8q-19 -19 -19 -179zM179 760v130h386
v-130h-386z" />
    <glyph glyph-name="omacron" unicode="&#x14d;" horiz-adv-x="630" 
d="M208 0q-44 0 -68 8t-44 28q-29 30 -41.5 83t-12.5 161t12.5 161t41.5 83q19 20 43.5 28t68.5 8h214q44 0 68 -8t44 -28q29 -30 41.5 -83t12.5 -161q0 -109 -12.5 -161.5t-41.5 -82.5q-20 -20 -44 -28t-68 -8h-214zM242 280q0 -110 10 -122q7 -9 35 -9h56q27 0 35 9
q10 12 10 122t-10 122q-8 9 -35 9h-56q-28 0 -35 -9q-10 -12 -10 -122zM122 620v130h386v-130h-386z" />
    <glyph glyph-name="Obreve" unicode="&#x14e;" horiz-adv-x="745" 
d="M256 700h233q98 0 138 -40q76 -74 76 -310t-76 -310q-40 -40 -138 -40h-233q-98 0 -138 40q-76 74 -76 310t76 310q40 40 138 40zM263 350q0 -160 19 -179q8 -8 46 -8h89q38 0 46 8q19 19 19 179t-19 179q-8 8 -46 8h-89q-38 0 -46 -8q-19 -19 -19 -179zM373 852
q25 0 36 8.5t14 29.5h144q-5 -139 -195 -139t-195 139h146q3 -21 14 -29.5t36 -8.5z" />
    <glyph glyph-name="obreve" unicode="&#x14f;" horiz-adv-x="630" 
d="M208 0q-44 0 -68 8t-44 28q-29 30 -41.5 83t-12.5 161t12.5 161t41.5 83q19 20 43.5 28t68.5 8h214q44 0 68 -8t44 -28q29 -30 41.5 -83t12.5 -161q0 -109 -12.5 -161.5t-41.5 -82.5q-20 -20 -44 -28t-68 -8h-214zM242 280q0 -110 10 -122q7 -9 35 -9h56q27 0 35 9
q10 12 10 122t-10 122q-8 9 -35 9h-56q-28 0 -35 -9q-10 -12 -10 -122zM316 712q25 0 36 8.5t14 29.5h144q-5 -139 -195 -139t-195 139h146q3 -21 14 -29.5t36 -8.5z" />
    <glyph glyph-name="Ohungarumlaut" unicode="&#x150;" horiz-adv-x="745" 
d="M256 700h233q98 0 138 -40q76 -74 76 -310t-76 -310q-40 -40 -138 -40h-233q-98 0 -138 40q-76 74 -76 310t76 310q40 40 138 40zM263 350q0 -160 19 -179q8 -8 46 -8h89q38 0 46 8q19 19 19 179t-19 179q-8 8 -46 8h-89q-38 0 -46 -8q-19 -19 -19 -179zM187 758v5
l59 127h206v-5l-141 -127h-124zM417 758v5l59 127h216v-5l-151 -127h-124z" />
    <glyph glyph-name="ohungarumlaut" unicode="&#x151;" horiz-adv-x="630" 
d="M208 0q-44 0 -68 8t-44 28q-29 30 -41.5 83t-12.5 161t12.5 161t41.5 83q19 20 43.5 28t68.5 8h214q44 0 68 -8t44 -28q29 -30 41.5 -83t12.5 -161q0 -109 -12.5 -161.5t-41.5 -82.5q-20 -20 -44 -28t-68 -8h-214zM242 280q0 -110 10 -122q7 -9 35 -9h56q27 0 35 9
q10 12 10 122t-10 122q-8 9 -35 9h-56q-28 0 -35 -9q-10 -12 -10 -122zM130 618v5l59 127h206v-5l-141 -127h-124zM360 618v5l59 127h216v-5l-151 -127h-124z" />
    <glyph glyph-name="OE" unicode="&#x152;" horiz-adv-x="1093" 
d="M1050 0h-718q-84 0 -133.5 13.5t-80.5 44.5q-38 38 -54.5 102t-16.5 190t16.5 189.5t54.5 101.5q32 32 81.5 45.5t132.5 13.5h718v-162h-357v-108h260v-150h-260v-118h357v-162zM268 350q0 -156 19 -175q17 -17 78 -17h113v384h-113q-62 0 -78 -16q-19 -20 -19 -176z" />
    <glyph glyph-name="oe" unicode="&#x153;" horiz-adv-x="960" 
d="M377 0h-183q-44 0 -68 8t-44 28q-29 30 -41.5 83t-12.5 161t12.5 161t41.5 83q19 20 43.5 28t68.5 8h183q40 0 61.5 -11t39.5 -34q17 22 39 33.5t62 11.5h184q44 0 68 -8t44 -28q27 -28 35 -73.5t8 -166.5v-9q0 -19 -6 -25.5t-26 -6.5h-317q1 -87 11 -99q7 -9 51 -9h47
q46 0 53 9q6 8 6 54h181q0 -124 -37 -161t-108 -37h-194q-40 0 -62 11t-39 33q-18 -22 -39.5 -33t-61.5 -11zM228 280q0 -110 10 -122q7 -9 35 -9h56q27 0 35 9q10 12 10 122t-10 122q-8 9 -35 9h-56q-28 0 -35 -9q-10 -12 -10 -122zM580 416q-9 -10 -11 -84h159q0 73 -9 84
q-8 9 -45 9h-43q-44 0 -51 -9z" />
    <glyph glyph-name="Racute" unicode="&#x154;" horiz-adv-x="758" 
d="M282 391h116q48 0 56 8q16 15 16 68q0 52 -16 66q-9 8 -56 8h-116v-150zM469 155q-2 57 -19 72q-14 13 -63 13h-105v-240h-215v700h447q100 0 136 -36q25 -25 35.5 -59.5t10.5 -103.5q0 -94 -28 -133t-92 -52v-2q58 -13 84.5 -41t28.5 -99q3 -96 11 -174h-219
q-9 59 -12 155zM299 758v5l84 127h242v-5l-195 -127h-131z" />
    <glyph glyph-name="racute" unicode="&#x155;" horiz-adv-x="472" 
d="M260 0h-203v560h203v-91q49 53 76 72t59 19h54v-194h-66q-67 0 -123 -24v-342zM169 618v5l84 127h242v-5l-195 -127h-131z" />
    <glyph glyph-name="Rcommaaccent" unicode="&#x156;" horiz-adv-x="758" 
d="M282 391h116q48 0 56 8q16 15 16 68q0 52 -16 66q-9 8 -56 8h-116v-150zM469 155q-2 57 -19 72q-14 13 -63 13h-105v-240h-215v700h447q100 0 136 -36q25 -25 35.5 -59.5t10.5 -103.5q0 -94 -28 -133t-92 -52v-2q58 -13 84.5 -41t28.5 -99q3 -96 11 -174h-219
q-9 59 -12 155zM308 -60h148v-119q0 -37 -10 -59.5t-36 -44.5l-79 -68l-44 35l57 72q13 18 13 35v1h-49v148z" />
    <glyph glyph-name="rcommaaccent" unicode="&#x157;" horiz-adv-x="478" 
d="M260 0h-203v560h203v-91q49 53 76 72t59 19h54v-194h-66q-67 0 -123 -24v-342zM83 -70h148v-119q0 -37 -10 -59.5t-36 -44.5l-79 -68l-44 35l57 72q13 18 13 35v1h-49v148z" />
    <glyph glyph-name="Rcaron" unicode="&#x158;" horiz-adv-x="758" 
d="M469 155q-2 57 -19 72q-14 13 -63 13h-105v-240h-215v700h447q100 0 136 -36q25 -25 35.5 -59.5t10.5 -103.5q0 -94 -28 -133t-92 -52v-2q58 -13 84.5 -41t28.5 -99q3 -96 11 -174h-219q-9 59 -12 155zM299 758l-141 127v5h170l54 -47l54 47h166v-5l-141 -127h-162z
M282 391h116q48 0 56 8q16 15 16 68q0 52 -16 66q-9 8 -56 8h-116v-150z" />
    <glyph glyph-name="rcaron" unicode="&#x159;" horiz-adv-x="472" 
d="M260 0h-203v560h203v-91q49 53 76 72t59 19h54v-194h-66q-67 0 -123 -24v-342zM169 618l-141 127v5h170l54 -47l54 47h166v-5l-141 -127h-162z" />
    <glyph glyph-name="Sacute" unicode="&#x15a;" horiz-adv-x="708" 
d="M664 219q0 -131 -54 -185q-34 -34 -110 -34h-289q-91 0 -124 33q-23 23 -33 68.5t-10 134.5h197q2 -62 11 -71q8 -8 47 -8h101q44 0 51 7q9 9 9 45q0 31 -9 40q-7 7 -52 12l-207 24q-64 7 -95 38q-45 45 -45 166q0 123 54 177q34 34 108 34h269q92 0 124 -32
q24 -24 35 -66.5t12 -128.5h-197q-2 53 -11 62q-8 8 -42 8h-100q-35 0 -40 -5q-8 -8 -8 -41q0 -31 9 -40q6 -6 52 -11l209 -24q64 -8 94 -38q44 -44 44 -165zM270 758v5l84 127h242v-5l-195 -127h-131z" />
    <glyph glyph-name="sacute" unicode="&#x15b;" horiz-adv-x="604" 
d="M562 179q0 -111 -44 -155q-24 -24 -81 -24h-256q-80 0 -105 28q-32 35 -34 152h175q1 -29 6 -36q4 -7 25 -7h100q21 0 26 5q4 4 4 28q0 20 -6 26t-40 10l-175 22q-55 6 -80 31q-17 17 -22.5 41.5t-5.5 84.5q0 107 43 150q25 25 81 25h241q80 0 106 -26q17 -17 24 -49
t8 -101h-175q-1 24 -6 32q-4 7 -25 7h-85q-21 0 -27 -6q-5 -5 -5 -23q0 -21 9 -27q8 -5 35 -8l184 -22q54 -6 78 -30q27 -27 27 -128zM219 618v5l84 127h242v-5l-195 -127h-131z" />
    <glyph glyph-name="Scedilla" unicode="&#x15e;" horiz-adv-x="708" 
d="M664 219q0 -131 -54 -185q-34 -34 -110 -34h-289q-91 0 -124 33q-23 23 -33 68.5t-10 134.5h197q2 -62 11 -71q8 -8 47 -8h101q44 0 51 7q9 9 9 45q0 31 -9 40q-7 7 -52 12l-207 24q-64 7 -95 38q-45 45 -45 166q0 123 54 177q34 34 108 34h269q92 0 124 -32
q24 -24 35 -66.5t12 -128.5h-197q-2 53 -11 62q-8 8 -42 8h-100q-35 0 -40 -5q-8 -8 -8 -41q0 -31 9 -40q6 -6 52 -11l209 -24q64 -8 94 -38q44 -44 44 -165zM412 -24q47 0 62 -15q19 -19 19 -95q0 -65 -19 -84q-16 -16 -65 -16h-141l-70 63v26h146q16 0 20 4t4 17t-4 17
t-20 4h-49v79h117z" />
    <glyph glyph-name="scedilla" unicode="&#x15f;" horiz-adv-x="604" 
d="M562 179q0 -111 -44 -155q-24 -24 -81 -24h-256q-80 0 -105 28q-32 35 -34 152h175q1 -29 6 -36q4 -7 25 -7h100q21 0 26 5q4 4 4 28q0 20 -6 26t-40 10l-175 22q-55 6 -80 31q-17 17 -22.5 41.5t-5.5 84.5q0 107 43 150q25 25 81 25h241q80 0 106 -26q17 -17 24 -49
t8 -101h-175q-1 24 -6 32q-4 7 -25 7h-85q-21 0 -27 -6q-5 -5 -5 -23q0 -21 9 -27q8 -5 35 -8l184 -22q54 -6 78 -30q27 -27 27 -128zM358 -24q47 0 62 -15q19 -19 19 -95q0 -65 -19 -84q-16 -16 -65 -16h-141l-70 63v26h146q16 0 20 4t4 17t-4 17t-20 4h-49v79h117z" />
    <glyph glyph-name="Scaron" unicode="&#x160;" horiz-adv-x="708" 
d="M664 219q0 -131 -54 -185q-34 -34 -110 -34h-289q-91 0 -124 33q-23 23 -33 68.5t-10 134.5h197q2 -62 11 -71q8 -8 47 -8h101q44 0 51 7q9 9 9 45q0 31 -9 40q-7 7 -52 12l-207 24q-64 7 -95 38q-45 45 -45 166q0 123 54 177q34 34 108 34h269q92 0 124 -32
q24 -24 35 -66.5t12 -128.5h-197q-2 53 -11 62q-8 8 -42 8h-100q-35 0 -40 -5q-8 -8 -8 -41q0 -31 9 -40q6 -6 52 -11l209 -24q64 -8 94 -38q44 -44 44 -165zM270 758l-141 127v5h170l54 -47l54 47h166v-5l-141 -127h-162z" />
    <glyph glyph-name="scaron" unicode="&#x161;" horiz-adv-x="604" 
d="M562 179q0 -111 -44 -155q-24 -24 -81 -24h-256q-80 0 -105 28q-32 35 -34 152h175q1 -29 6 -36q4 -7 25 -7h100q21 0 26 5q4 4 4 28q0 20 -6 26t-40 10l-175 22q-55 6 -80 31q-17 17 -22.5 41.5t-5.5 84.5q0 107 43 150q25 25 81 25h241q80 0 106 -26q17 -17 24 -49
t8 -101h-175q-1 24 -6 32q-4 7 -25 7h-85q-21 0 -27 -6q-5 -5 -5 -23q0 -21 9 -27q8 -5 35 -8l184 -22q54 -6 78 -30q27 -27 27 -128zM219 618l-141 127v5h170l54 -47l54 47h166v-5l-141 -127h-162z" />
    <glyph glyph-name="Tcommaaccent" unicode="&#x162;" 
d="M642 536h-210v-536h-215v536h-205v164h630v-164zM252 -70h148v-119q0 -37 -10 -59.5t-36 -44.5l-79 -68l-44 35l57 72q13 18 13 35v1h-49v148z" />
    <glyph glyph-name="tcommaaccent" unicode="&#x163;" horiz-adv-x="476" 
d="M433 150v-130l-48 -11q-62 -15 -144 -15q-81 0 -116 35q-28 28 -28 114v268h-76v149h76v140h203v-140h134v-149h-134v-216q0 -30 8 -38q7 -7 40 -7h85zM182 -70h148v-119q0 -37 -10 -59.5t-36 -44.5l-79 -68l-44 35l57 72q13 18 13 35v1h-49v148z" />
    <glyph glyph-name="Tcaron" unicode="&#x164;" 
d="M642 536h-210v-536h-215v536h-205v164h630v-164zM243 758l-141 127v5h170l54 -47l54 47h166v-5l-141 -127h-162z" />
    <glyph glyph-name="tcaron" unicode="&#x165;" horiz-adv-x="476" 
d="M433 150v-130l-48 -11q-62 -15 -144 -15q-81 0 -116 35q-28 28 -28 114v268h-76v149h76v140h203v-140h134v-149h-134v-216q0 -30 8 -38q7 -7 40 -7h85zM330 872v50h158v-109q0 -78 -34 -128l-58 -87l-66 27l26 100q4 18 4 27q0 15 -4 28z" />
    <glyph glyph-name="Umacron" unicode="&#x16a;" horiz-adv-x="775" 
d="M708 700v-419q0 -110 -13.5 -159.5t-44.5 -80.5q-24 -24 -59 -32.5t-103 -8.5h-201q-68 0 -103 8.5t-59 32.5q-31 31 -44.5 80.5t-13.5 159.5v419h215v-418q0 -78 14 -92q11 -11 58 -11h67q47 0 58 11q14 14 14 92v418h215zM194 760v130h386v-130h-386z" />
    <glyph glyph-name="umacron" unicode="&#x16b;" 
d="M394 560h203v-560h-203v82q-54 -53 -81.5 -68t-70.5 -15h-49q-73 0 -104 31q-18 18 -25 48t-7 94v388h203v-361q0 -28 10 -38t35 -10h17q26 0 72 13v396zM134 620v130h386v-130h-386z" />
    <glyph glyph-name="Ubreve" unicode="&#x16c;" horiz-adv-x="775" 
d="M708 700v-419q0 -110 -13.5 -159.5t-44.5 -80.5q-24 -24 -59 -32.5t-103 -8.5h-201q-68 0 -103 8.5t-59 32.5q-31 31 -44.5 80.5t-13.5 159.5v419h215v-418q0 -78 14 -92q11 -11 58 -11h67q47 0 58 11q14 14 14 92v418h215zM388 852q25 0 36 8.5t14 29.5h144
q-5 -139 -195 -139t-195 139h146q3 -21 14 -29.5t36 -8.5z" />
    <glyph glyph-name="ubreve" unicode="&#x16d;" 
d="M394 560h203v-560h-203v82q-54 -53 -81.5 -68t-70.5 -15h-49q-73 0 -104 31q-18 18 -25 48t-7 94v388h203v-361q0 -28 10 -38t35 -10h17q26 0 72 13v396zM328 712q25 0 36 8.5t14 29.5h144q-5 -139 -195 -139t-195 139h146q3 -21 14 -29.5t36 -8.5z" />
    <glyph glyph-name="Uring" unicode="&#x16e;" horiz-adv-x="775" 
d="M708 700v-419q0 -110 -13.5 -159.5t-44.5 -80.5q-24 -24 -59 -32.5t-103 -8.5h-201q-68 0 -103 8.5t-59 32.5q-31 31 -44.5 80.5t-13.5 159.5v419h215v-418q0 -78 14 -92q11 -11 58 -11h67q47 0 58 11q14 14 14 92v418h215zM406 888h-38q-20 0 -25 -5q-6 -6 -6 -20t6 -20
q5 -5 25 -5h38q20 0 25 5q6 6 6 20t-6 20q-5 5 -25 5zM458 750h-142q-43 0 -64 19q-28 25 -28 94t28 94q21 19 64 19h142q43 0 64 -19q28 -25 28 -94t-28 -94q-21 -19 -64 -19z" />
    <glyph glyph-name="uring" unicode="&#x16f;" 
d="M394 560h203v-560h-203v82q-54 -53 -81.5 -68t-70.5 -15h-49q-73 0 -104 31q-18 18 -25 48t-7 94v388h203v-361q0 -28 10 -38t35 -10h17q26 0 72 13v396zM398 610h-142q-43 0 -64 19q-28 25 -28 94t28 94q21 19 64 19h142q43 0 64 -19q28 -25 28 -94t-28 -94
q-21 -19 -64 -19zM346 748h-38q-20 0 -25 -5q-6 -6 -6 -20t6 -20q5 -5 25 -5h38q20 0 25 5q6 6 6 20t-6 20q-5 5 -25 5z" />
    <glyph glyph-name="Uhungarumlaut" unicode="&#x170;" horiz-adv-x="775" 
d="M708 700v-419q0 -110 -13.5 -159.5t-44.5 -80.5q-24 -24 -59 -32.5t-103 -8.5h-201q-68 0 -103 8.5t-59 32.5q-31 31 -44.5 80.5t-13.5 159.5v419h215v-418q0 -78 14 -92q11 -11 58 -11h67q47 0 58 11q14 14 14 92v418h215zM202 758v5l59 127h206v-5l-141 -127h-124z
M432 758v5l59 127h216v-5l-151 -127h-124z" />
    <glyph glyph-name="uhungarumlaut" unicode="&#x171;" 
d="M394 560h203v-560h-203v82q-54 -53 -81.5 -68t-70.5 -15h-49q-73 0 -104 31q-18 18 -25 48t-7 94v388h203v-361q0 -28 10 -38t35 -10h17q26 0 72 13v396zM372 618v5l59 127h216v-5l-151 -127h-124zM142 618v5l59 127h206v-5l-141 -127h-124z" />
    <glyph glyph-name="Uogonek" unicode="&#x172;" horiz-adv-x="775" 
d="M434 -58h109q0 -61 -5.5 -86t-19.5 -38q-17 -16 -62 -16h-124q-45 0 -62 16q-25 22 -25 74q0 50 15 71q14 19 41 37h-14q-68 0 -103 8.5t-59 32.5q-31 31 -44.5 80.5t-13.5 159.5v419h215v-418q0 -78 14 -92q11 -11 58 -11h67q47 0 58 11q14 14 14 92v418h215v-419
q0 -110 -13.5 -159.5t-44.5 -80.5q-24 -24 -59 -32.5t-103 -8.5h-87q-21 -28 -27 -41t-6 -28q0 -19 4 -23t14 -4h29q10 0 14 4q5 5 5 34z" />
    <glyph glyph-name="uogonek" unicode="&#x173;" 
d="M394 560h203v-560h-113q-21 -28 -27 -41t-6 -28q0 -19 4 -23t14 -4h29q10 0 14 4q5 5 5 34h109q0 -61 -5.5 -86t-19.5 -38q-17 -16 -62 -16h-124q-45 0 -62 16q-25 22 -25 74q0 50 15 71q13 19 51 43v76q-54 -53 -81.5 -68t-70.5 -15h-49q-73 0 -104 31q-18 18 -25 48
t-7 94v388h203v-361q0 -28 10 -38t35 -10h17q26 0 72 13v396z" />
    <glyph glyph-name="Wcircumflex" unicode="&#x174;" horiz-adv-x="1073" 
d="M1056 700l-144 -637q-8 -37 -26.5 -51.5t-55.5 -14.5h-144q-37 0 -55.5 14.5t-25.5 51.5l-64 314h-9l-63 -314q-7 -37 -25.5 -51.5t-55.5 -14.5h-145q-37 0 -55.5 14.5t-26.5 51.5l-144 637h234l72 -470h10l85 406q7 36 25.5 51t54.5 15h93q37 0 55 -14.5t25 -51.5
l85 -406h9l72 470h219zM590 758l-54 47l-54 -47h-166v5l141 127h162l141 -127v-5h-170z" />
    <glyph glyph-name="wcircumflex" unicode="&#x175;" horiz-adv-x="881" 
d="M17 560h200l53 -340h11l63 296q6 28 21 37t46 9h75q30 0 44.5 -9t20.5 -37l64 -296h11l52 340h186l-117 -516q-9 -28 -23 -37t-44 -9h-124q-30 0 -45.5 9.5t-21.5 36.5l-43 211h-11l-43 -211q-6 -28 -21 -37t-46 -9h-124q-30 0 -44 9t-23 37zM495 618l-54 47l-54 -47
h-166v5l141 127h162l141 -127v-5h-170z" />
    <glyph glyph-name="Ycircumflex" unicode="&#x176;" horiz-adv-x="721" 
d="M716 700l-253 -466v-234h-205v234l-253 466h224l135 -267h4l136 267h212zM414 758l-54 47l-54 -47h-166v5l141 127h162l141 -127v-5h-170z" />
    <glyph glyph-name="ycircumflex" unicode="&#x177;" horiz-adv-x="643" 
d="M17 560h215l104 -315h8l78 315h207l-213 -632q-19 -55 -57.5 -77.5t-111.5 -22.5q-62 0 -156 8v145h108q21 0 29 20l6 18zM386 618l-54 47l-54 -47h-166v5l141 127h162l141 -127v-5h-170z" />
    <glyph glyph-name="Ydieresis" unicode="&#x178;" horiz-adv-x="721" 
d="M716 700l-253 -466v-234h-205v234l-253 466h224l135 -267h4l136 267h212zM142 759v151h191v-151h-191zM387 759v151h191v-151h-191z" />
    <glyph glyph-name="Zacute" unicode="&#x179;" horiz-adv-x="702" 
d="M660 161v-161h-620v154l348 381h-335v165h609v-154l-338 -385h336zM267 758v5l84 127h242v-5l-195 -127h-131z" />
    <glyph glyph-name="zacute" unicode="&#x17a;" horiz-adv-x="606" 
d="M564 140v-140h-518v131l263 289h-250v140h503v-131l-263 -289h265zM230 618v5l84 127h242v-5l-195 -127h-131z" />
    <glyph glyph-name="Zdotaccent" unicode="&#x17b;" horiz-adv-x="702" 
d="M660 161v-161h-620v154l348 381h-335v165h609v-154l-338 -385h336zM252 768v152h199v-152h-199z" />
    <glyph glyph-name="zdotaccent" unicode="&#x17c;" horiz-adv-x="606" 
d="M564 140v-140h-518v131l263 289h-250v140h503v-131l-263 -289h265zM215 628v152h199v-152h-199z" />
    <glyph glyph-name="Zcaron" unicode="&#x17d;" horiz-adv-x="702" 
d="M660 161v-161h-620v154l348 381h-335v165h609v-154l-338 -385h336zM267 758l-141 127v5h170l54 -47l54 47h166v-5l-141 -127h-162z" />
    <glyph glyph-name="zcaron" unicode="&#x17e;" horiz-adv-x="606" 
d="M564 140v-140h-518v131l263 289h-250v140h503v-131l-263 -289h265zM230 618l-141 127v5h170l54 -47l54 47h166v-5l-141 -127h-162z" />
    <glyph glyph-name="Aringacute" unicode="&#x1fa;" horiz-adv-x="758" 
d="M203 587q15 46 40 58q-27 26 -27 94q0 69 28 94q21 19 64 19h142q43 0 64 -19q28 -25 28 -94t-28 -94q25 -11 42 -58l195 -587h-227l-44 151h-215l-43 -151h-215zM285 890v5l84 127h242v-5l-195 -127h-131zM367 507l-60 -206h131l-60 206h-11zM398 764h-38q-20 0 -25 -5
q-6 -6 -6 -20t6 -20q5 -5 25 -5h38q20 0 25 5q6 6 6 20t-6 20q-5 5 -25 5z" />
    <glyph glyph-name="aringacute" unicode="&#x1fb;" horiz-adv-x="643" 
d="M65 373q1 72 8 104t26 51q32 32 106 32h234q81 0 113 -33q19 -20 26.5 -51.5t7.5 -96.5v-379h-202v59q-48 -38 -77 -49t-69 -11h-67q-69 0 -97 28q-32 32 -32 128q0 105 35 140t133 35q81 0 174 -17v39q0 49 -9 58q-8 8 -33 8h-48q-25 0 -33 -8t-9 -37h-187zM404 610
h-142q-43 0 -64 19q-28 25 -28 94t28 94q21 19 64 19h142q43 0 64 -19q28 -25 28 -94t-28 -94q-21 -19 -64 -19zM239 884v5l84 127h242v-5l-195 -127h-131zM292 127q39 0 92 26v71h-62q-61 0 -74 -13q-11 -11 -11 -37q0 -27 10 -37t36 -10h9zM352 748h-38q-20 0 -25 -5
q-6 -6 -6 -20t6 -20q5 -5 25 -5h38q20 0 25 5q6 6 6 20t-6 20q-5 5 -25 5z" />
    <glyph glyph-name="AEacute" unicode="&#x1fc;" horiz-adv-x="1104" 
d="M489 0v171h-200l-86 -171h-219l335 634q23 41 38.5 53.5t50.5 12.5h653v-162h-357v-108h260v-150h-260v-118h357v-162h-572zM532 758v5l84 127h242v-5l-195 -127h-131zM479 549l-111 -220h121v220h-10z" />
    <glyph glyph-name="aeacute" unicode="&#x1fd;" horiz-adv-x="976" 
d="M210 330q81 0 174 -17v39q0 49 -9 58q-8 8 -33 8h-48q-25 0 -33 -8t-9 -37h-187q1 72 8 104t26 51q32 32 106 32h188q67 0 101 -46q33 46 101 46h184q44 0 68 -8t44 -28q27 -28 35 -73.5t8 -166.5v-9q0 -19 -6 -25.5t-26 -6.5h-317q1 -87 11 -99q7 -9 51 -9h47q46 0 53 9
q6 8 6 54h181q0 -124 -37 -161t-108 -37h-233q-44 0 -68 8t-44 28q-21 21 -33 46q-62 -53 -95 -68t-78 -15h-67q-69 0 -97 28q-32 32 -32 128q0 105 35 140t133 35zM411 618v5l84 127h242v-5l-195 -127h-131zM596 416q-9 -10 -11 -84h159q0 73 -9 84q-8 9 -45 9h-43
q-44 0 -51 -9zM292 127q39 0 99 29q-4 28 -6 68h-63q-61 0 -74 -13q-11 -11 -11 -37q0 -27 10 -37t36 -10h9z" />
    <glyph glyph-name="Oslashacute" unicode="&#x1fe;" horiz-adv-x="712" 
d="M239 700h201l25 53h165l-38 -79q4 -2 18 -14q76 -74 76 -310t-76 -310q-40 -40 -138 -40h-202l-25 -53h-165l37 79q-6 4 -16 14q-76 74 -76 310t76 310q40 40 138 40zM272 758v5l84 127h242v-5l-195 -127h-131zM465 350q0 41 -2 87l-124 -274h61q38 0 46 8q19 19 19 179z
M246 350q0 -63 1 -85l124 272h-60q-38 0 -46 -8q-19 -19 -19 -179z" />
    <glyph glyph-name="oslashacute" unicode="&#x1ff;" horiz-adv-x="630" 
d="M560 610l-38 -75l12 -11q29 -30 41.5 -83t12.5 -161q0 -109 -12.5 -161.5t-41.5 -82.5q-20 -20 -44 -28t-68 -8h-167l-25 -50h-159l38 74q-9 8 -13 12q-29 30 -41.5 83t-12.5 161t12.5 161t41.5 83q19 20 43.5 28t68.5 8h167l26 50h159zM231 618v5l84 127h242v-5
l-195 -127h-131zM398 280q0 49 -1 66l-87 -197h43q27 0 35 9q10 12 10 122zM232 280v-66l87 197h-42q-28 0 -35 -9q-10 -12 -10 -122z" />
    <glyph glyph-name="Scommaaccent" unicode="&#x218;" horiz-adv-x="708" 
d="M664 219q0 -131 -54 -185q-34 -34 -110 -34h-289q-91 0 -124 33q-23 23 -33 68.5t-10 134.5h197q2 -62 11 -71q8 -8 47 -8h101q44 0 51 7q9 9 9 45q0 31 -9 40q-7 7 -52 12l-207 24q-64 7 -95 38q-45 45 -45 166q0 123 54 177q34 34 108 34h269q92 0 124 -32
q24 -24 35 -66.5t12 -128.5h-197q-2 53 -11 62q-8 8 -42 8h-100q-35 0 -40 -5q-8 -8 -8 -41q0 -31 9 -40q6 -6 52 -11l209 -24q64 -8 94 -38q44 -44 44 -165zM279 -70h148v-119q0 -37 -10 -59.5t-36 -44.5l-79 -68l-44 35l57 72q13 18 13 35v1h-49v148z" />
    <glyph glyph-name="scommaaccent" unicode="&#x219;" horiz-adv-x="604" 
d="M562 179q0 -111 -44 -155q-24 -24 -81 -24h-256q-80 0 -105 28q-32 35 -34 152h175q1 -29 6 -36q4 -7 25 -7h100q21 0 26 5q4 4 4 28q0 20 -6 26t-40 10l-175 22q-55 6 -80 31q-17 17 -22.5 41.5t-5.5 84.5q0 107 43 150q25 25 81 25h241q80 0 106 -26q17 -17 24 -49
t8 -101h-175q-1 24 -6 32q-4 7 -25 7h-85q-21 0 -27 -6q-5 -5 -5 -23q0 -21 9 -27q8 -5 35 -8l184 -22q54 -6 78 -30q27 -27 27 -128zM228 -70h148v-119q0 -37 -10 -59.5t-36 -44.5l-79 -68l-44 35l57 72q13 18 13 35v1h-49v148z" />
    <glyph glyph-name="schwa" unicode="&#x259;" horiz-adv-x="628" 
d="M42 285q0 19 6 25.5t26 6.5h317q-1 87 -11 99q-7 9 -51 9h-47q-46 0 -53 -9q-6 -8 -6 -54h-181q0 124 37 161t108 37h233q44 0 68 -8t44 -28q30 -31 42 -80t12 -164t-12 -164t-42 -80q-19 -20 -43.5 -28t-68.5 -8h-223q-44 0 -68 8t-44 28q-27 28 -35 73.5t-8 166.5v9z
M380 144q9 9 10 84h-158q0 -73 9 -84q8 -9 45 -9h43q44 0 51 9z" />
    <glyph glyph-name="circumflex" unicode="&#x2c6;" horiz-adv-x="500" 
d="M301 618l-54 47l-54 -47h-166v5l141 127h162l141 -127v-5h-170z" />
    <glyph glyph-name="caron" unicode="&#x2c7;" horiz-adv-x="500" 
d="M168 618l-141 127v5h170l54 -47l54 47h166v-5l-141 -127h-162z" />
    <glyph glyph-name="breve" unicode="&#x2d8;" horiz-adv-x="500" 
d="M251 712q25 0 36 8.5t14 29.5h144q-5 -139 -195 -139t-195 139h146q3 -21 14 -29.5t36 -8.5z" />
    <glyph glyph-name="dotaccent" unicode="&#x2d9;" horiz-adv-x="500" 
d="M149 628v152h199v-152h-199z" />
    <glyph glyph-name="ring" unicode="&#x2da;" horiz-adv-x="500" 
d="M269 748h-38q-20 0 -25 -5q-6 -6 -6 -20t6 -20q5 -5 25 -5h38q20 0 25 5q6 6 6 20t-6 20q-5 5 -25 5zM321 610h-142q-43 0 -64 19q-28 25 -28 94t28 94q21 19 64 19h142q43 0 64 -19q28 -25 28 -94t-28 -94q-21 -19 -64 -19z" />
    <glyph glyph-name="ogonek" unicode="&#x2db;" horiz-adv-x="500" 
d="M291 -58h109q0 -61 -5.5 -86t-19.5 -38q-17 -16 -62 -16h-124q-45 0 -62 16q-25 22 -25 74q0 50 15 71q24 34 113 80l28 -43q-21 -28 -27 -41t-6 -28q0 -19 4 -23t14 -4h29q10 0 14 4q5 5 5 34z" />
    <glyph glyph-name="tilde" unicode="&#x2dc;" horiz-adv-x="500" 
d="M30 623v62q0 49 19 68q18 18 54 18h29q25 0 53 -6l117 -29l18 33h110v-62q0 -49 -19 -68q-18 -18 -54 -18h-29q-25 0 -53 6l-117 29l-18 -33h-110z" />
    <glyph glyph-name="hungarumlaut" unicode="&#x2dd;" horiz-adv-x="500" 
d="M57 618v5l59 127h206v-5l-141 -127h-124zM287 618v5l59 127h216v-5l-151 -127h-124z" />
    <glyph glyph-name="commaaccent" unicode="&#x326;" horiz-adv-x="500" 
d="M182 -70h148v-119q0 -37 -10 -59.5t-36 -44.5l-79 -68l-44 35l57 72q13 18 13 35v1h-49v148z" />
    <glyph glyph-name="Wgrave" unicode="&#x1e80;" horiz-adv-x="1073" 
d="M1056 700l-144 -637q-8 -37 -26.5 -51.5t-55.5 -14.5h-144q-37 0 -55.5 14.5t-25.5 51.5l-64 314h-9l-63 -314q-7 -37 -25.5 -51.5t-55.5 -14.5h-145q-37 0 -55.5 14.5t-26.5 51.5l-144 637h234l72 -470h10l85 406q7 36 25.5 51t54.5 15h93q37 0 55 -14.5t25 -51.5
l85 -406h9l72 470h219zM620 758h-131l-195 127v5h242l84 -127v-5z" />
    <glyph glyph-name="wgrave" unicode="&#x1e81;" horiz-adv-x="881" 
d="M17 560h200l53 -340h11l63 296q6 28 21 37t46 9h75q30 0 44.5 -9t20.5 -37l64 -296h11l52 340h186l-117 -516q-9 -28 -23 -37t-44 -9h-124q-30 0 -45.5 9.5t-21.5 36.5l-43 211h-11l-43 -211q-6 -28 -21 -37t-46 -9h-124q-30 0 -44 9t-23 37zM525 618h-131l-195 127v5
h242l84 -127v-5z" />
    <glyph glyph-name="Wacute" unicode="&#x1e82;" horiz-adv-x="1073" 
d="M1056 700l-144 -637q-8 -37 -26.5 -51.5t-55.5 -14.5h-144q-37 0 -55.5 14.5t-25.5 51.5l-64 314h-9l-63 -314q-7 -37 -25.5 -51.5t-55.5 -14.5h-145q-37 0 -55.5 14.5t-26.5 51.5l-144 637h234l72 -470h10l85 406q7 36 25.5 51t54.5 15h93q37 0 55 -14.5t25 -51.5
l85 -406h9l72 470h219zM452 758v5l84 127h242v-5l-195 -127h-131z" />
    <glyph glyph-name="wacute" unicode="&#x1e83;" horiz-adv-x="881" 
d="M17 560h200l53 -340h11l63 296q6 28 21 37t46 9h75q30 0 44.5 -9t20.5 -37l64 -296h11l52 340h186l-117 -516q-9 -28 -23 -37t-44 -9h-124q-30 0 -45.5 9.5t-21.5 36.5l-43 211h-11l-43 -211q-6 -28 -21 -37t-46 -9h-124q-30 0 -44 9t-23 37zM357 618v5l84 127h242v-5
l-195 -127h-131z" />
    <glyph glyph-name="Wdieresis" unicode="&#x1e84;" horiz-adv-x="1073" 
d="M1056 700l-144 -637q-8 -37 -26.5 -51.5t-55.5 -14.5h-144q-37 0 -55.5 14.5t-25.5 51.5l-64 314h-9l-63 -314q-7 -37 -25.5 -51.5t-55.5 -14.5h-145q-37 0 -55.5 14.5t-26.5 51.5l-144 637h234l72 -470h10l85 406q7 36 25.5 51t54.5 15h93q37 0 55 -14.5t25 -51.5
l85 -406h9l72 470h219zM318 759v151h191v-151h-191zM563 759v151h191v-151h-191z" />
    <glyph glyph-name="wdieresis" unicode="&#x1e85;" horiz-adv-x="881" 
d="M17 560h200l53 -340h11l63 296q6 28 21 37t46 9h75q30 0 44.5 -9t20.5 -37l64 -296h11l52 340h186l-117 -516q-9 -28 -23 -37t-44 -9h-124q-30 0 -45.5 9.5t-21.5 36.5l-43 211h-11l-43 -211q-6 -28 -21 -37t-46 -9h-124q-30 0 -44 9t-23 37zM223 619v151h191v-151h-191z
M468 619v151h191v-151h-191z" />
    <glyph glyph-name="Ygrave" unicode="&#x1ef2;" horiz-adv-x="721" 
d="M716 700l-253 -466v-234h-205v234l-253 466h224l135 -267h4l136 267h212zM444 758h-131l-195 127v5h242l84 -127v-5z" />
    <glyph glyph-name="ygrave" unicode="&#x1ef3;" horiz-adv-x="643" 
d="M17 560h215l104 -315h8l78 315h207l-213 -632q-19 -55 -57.5 -77.5t-111.5 -22.5q-62 0 -156 8v145h108q21 0 29 20l6 18zM416 618h-131l-195 127v5h242l84 -127v-5z" />
    <glyph glyph-name="enspace" unicode="&#x2002;" horiz-adv-x="500" 
 />
    <glyph glyph-name="emspace" unicode="&#x2003;" horiz-adv-x="1000" 
 />
    <glyph glyph-name="threeperemspace" unicode="&#x2004;" horiz-adv-x="333" 
 />
    <glyph glyph-name="fourperemspace" unicode="&#x2005;" horiz-adv-x="250" 
 />
    <glyph glyph-name="thinspace" unicode="&#x2009;" horiz-adv-x="133" 
 />
    <glyph glyph-name="hairspace" unicode="&#x200a;" horiz-adv-x="75" 
 />
    <glyph glyph-name="endash" unicode="&#x2013;" horiz-adv-x="498" 
d="M457 254h-416v148h416v-148z" />
    <glyph glyph-name="emdash" unicode="&#x2014;" horiz-adv-x="938" 
d="M897 255h-856v146h856v-146z" />
    <glyph glyph-name="quoteleft" unicode="&#x2018;" horiz-adv-x="265" 
d="M219 350h-185v148q0 46 12.5 74.5t44.5 55.5l99 85l55 -43l-71 -91q-17 -22 -17 -43v-1h62v-185z" />
    <glyph glyph-name="quoteright" unicode="&#x2019;" horiz-adv-x="265" 
d="M46 700h185v-148q0 -46 -12.5 -74.5t-44.5 -55.5l-99 -85l-55 43l71 91q17 22 17 43v1h-62v185z" />
    <glyph glyph-name="quotesinglbase" unicode="&#x201a;" horiz-adv-x="268" 
d="M49 185h185v-148q0 -46 -12.5 -74.5t-44.5 -55.5l-99 -85l-55 43l71 91q17 22 17 43v1h-62v185z" />
    <glyph glyph-name="quotedblleft" unicode="&#x201c;" horiz-adv-x="506" 
d="M216 350h-182v148q0 46 12.5 74.5t44.5 55.5l99 85l55 -43l-71 -91q-17 -22 -17 -43v-1h59v-185zM457 350h-182v148q0 46 12.5 74.5t44.5 55.5l99 85l55 -43l-71 -91q-17 -22 -17 -43v-1h59v-185z" />
    <glyph glyph-name="quotedblright" unicode="&#x201d;" horiz-adv-x="506" 
d="M290 700h182v-148q0 -46 -12.5 -74.5t-44.5 -55.5l-99 -85l-55 43l71 91q17 22 17 43v1h-59v185zM49 700h182v-148q0 -46 -12.5 -74.5t-44.5 -55.5l-99 -85l-55 43l71 91q17 22 17 43v1h-59v185z" />
    <glyph glyph-name="quotedblbase" unicode="&#x201e;" horiz-adv-x="512" 
d="M49 185h185v-148q0 -46 -12.5 -74.5t-44.5 -55.5l-99 -85l-55 43l71 91q17 22 17 43v1h-62v185zM293 185h185v-148q0 -46 -12.5 -74.5t-44.5 -55.5l-99 -85l-55 43l71 91q17 22 17 43v1h-62v185z" />
    <glyph glyph-name="dagger" unicode="&#x2020;" horiz-adv-x="472" 
d="M55 578l132 -30v-48l-132 -30v108zM417 578v-108l-132 30v48zM295 700l-30 -132h-58l-30 132h118zM290 374l-25 -263h-58l-25 263l25 106h58z" />
    <glyph glyph-name="daggerdbl" unicode="&#x2021;" horiz-adv-x="486" 
d="M62 578l132 -30v-48l-132 -30v108zM424 578v-108l-132 30v48zM302 700l-30 -132h-58l-30 132h118zM62 122v108l132 -30v-48zM424 122l-132 30v48l132 30v-108zM302 0h-118l30 132h58zM297 350l-25 -130h-58l-25 130l25 130h58z" />
    <glyph glyph-name="bullet" unicode="&#x2022;" horiz-adv-x="524" 
d="M115 199q-20 19 -27.5 52t-7.5 112t7.5 112t27.5 52q26 23 83 23h128q57 0 83 -23q20 -19 27.5 -52t7.5 -112t-7.5 -112t-27.5 -52q-25 -24 -83 -24h-128q-58 0 -83 24z" />
    <glyph glyph-name="ellipsis" unicode="&#x2026;" horiz-adv-x="750" 
d="M34 182h182v-182h-182v182zM284 182h182v-182h-182v182zM534 182h182v-182h-182v182z" />
    <glyph glyph-name="guilsinglleft" unicode="&#x2039;" horiz-adv-x="376" 
d="M30 233v94l123 137h203l-163 -184l163 -184h-203z" />
    <glyph glyph-name="guilsinglright" unicode="&#x203a;" horiz-adv-x="376" 
d="M346 233l-123 -137h-203l163 184l-163 184h203l123 -137v-94z" />
    <glyph glyph-name="Euro" unicode="&#x20ac;" horiz-adv-x="739" 
d="M438 379h-145v-29v-29h145v-109h-143q2 -46 10 -54t46 -8h109q35 0 43 8t12 122h187q-2 -103 -12.5 -160t-37.5 -84q-20 -20 -49.5 -28t-82.5 -8h-239q-53 0 -81 8.5t-49 29.5q-46 44 -58 168h-74v117h68v27v27h-68v117h74q12 124 58 168q21 21 49 29.5t81 8.5h239
q97 0 132 -35q27 -27 37.5 -84t12.5 -158h-187q-4 111 -12 119t-43 8h-109q-38 0 -46 -8t-10 -54h143v-109z" />
    <glyph glyph-name="published" unicode="&#x2117;" horiz-adv-x="794" 
d="M138 52q-66 66 -66 298t66 298q27 27 62 39.5t106 12.5h182q71 0 106 -12.5t62 -39.5q66 -66 66 -298t-66 -298q-27 -27 -62 -39.5t-106 -12.5h-182q-71 0 -106 12.5t-62 39.5zM145 350q0 -119 12 -174t35 -79q18 -18 43 -26t76 -8h172q51 0 76 8t43 26q23 24 35 79
t12 174t-12 174t-35 79q-18 18 -43 26t-76 8h-172q-51 0 -76 -8t-43 -26q-23 -24 -35 -79t-12 -174zM357 367h55q26 0 31 5q10 10 10 39q0 30 -10 38q-7 5 -31 5h-55v-87zM580 410q0 -86 -36 -116q-22 -18 -71 -18h-116v-116h-124v385h240q51 0 72 -18q35 -29 35 -117z" />
    <glyph glyph-name="servicemark" unicode="&#x2120;" horiz-adv-x="993" 
d="M401 428q0 -76 -31 -104q-21 -19 -62 -19h-173q-51 0 -70 19q-25 25 -25 114h117q1 -31 6 -36t26 -5h58q24 0 28 5q4 4 4 21q0 16 -4 20q-5 5 -29 8l-122 14q-36 4 -54 22q-26 26 -26 93q0 70 31 101q19 19 61 19h162q52 0 71 -19q26 -24 26 -110h-116q-2 28 -6 32
q-5 5 -24 5h-56q-19 0 -22 -3q-5 -5 -5 -21t5 -21q4 -4 28 -7l124 -14q38 -4 53 -21q25 -28 25 -93zM953 700v-395h-120v239h-6l-71 -216q-8 -23 -25 -23h-51q-18 0 -26 23l-72 216h-5v-239h-117v395h163q12 0 18 -5t10 -18l55 -180h6l51 180q7 23 29 23h161z" />
    <glyph glyph-name="trademark" unicode="&#x2122;" horiz-adv-x="980" 
d="M940 700v-395h-120v239h-6l-71 -216q-8 -23 -25 -23h-51q-18 0 -26 23l-72 216h-5v-239h-117v395h163q12 0 18 -5t10 -18l55 -180h6l51 180q7 23 29 23h161zM401 603h-120v-298h-126v298h-115v97h361v-97z" />
    <glyph glyph-name="minus" unicode="&#x2212;" horiz-adv-x="526" 
d="M40 290v146h446v-146h-446z" />
    <glyph glyph-name="aring.alt" horiz-adv-x="643" 
d="M65 373q1 72 8 104t26 51q24 24 65 30q-1 10 -1 34q0 69 28 94q21 19 64 19h142q43 0 64 -19q28 -25 28 -94q0 -14 -2 -36q42 -6 65 -29q19 -20 26.5 -51.5t7.5 -96.5v-379h-202v59q-48 -38 -77 -49t-69 -11h-67q-69 0 -97 28q-32 32 -32 128q0 105 35 140t133 35
q81 0 174 -17v39q0 49 -9 58q-8 8 -33 8h-48q-25 0 -33 -8t-9 -37h-187zM292 127q39 0 92 26v71h-62q-61 0 -74 -13q-11 -11 -11 -37q0 -27 10 -37t36 -10h9zM345 617h-38q-20 0 -25 -5q-6 -6 -6 -20t6 -20q5 -5 25 -5h38q20 0 25 5q6 6 6 20t-6 20q-5 5 -25 5z" />
    <glyph glyph-name="aringacute.alt" horiz-adv-x="643" 
d="M65 373q1 72 8 104t26 51q26 26 72 30q-1 10 -1 34q0 69 28 94q21 19 64 19h142q43 0 64 -19q28 -25 28 -94q0 -15 -2 -37q38 -8 58 -28q19 -20 26.5 -51.5t7.5 -96.5v-379h-202v59q-48 -38 -77 -49t-69 -11h-67q-69 0 -97 28q-32 32 -32 128q0 105 35 140t133 35
q81 0 174 -17v39q0 49 -9 58q-8 8 -33 8h-48q-25 0 -33 -8t-9 -37h-187zM239 753v5l84 127h242v-5l-195 -127h-131zM292 127q39 0 92 26v71h-62q-61 0 -74 -13q-11 -11 -11 -37q0 -27 10 -37t36 -10h9zM352 617h-38q-20 0 -25 -5q-6 -6 -6 -20t6 -20q5 -5 25 -5h38
q20 0 25 5q6 6 6 20t-6 20q-5 5 -25 5z" />
    <glyph glyph-name="registered.alt" horiz-adv-x="794" 
d="M138 52q-66 66 -66 298t66 298q27 27 62 39.5t106 12.5h182q71 0 106 -12.5t62 -39.5q66 -66 66 -298t-66 -298q-27 -27 -62 -39.5t-106 -12.5h-182q-71 0 -106 12.5t-62 39.5zM145 350q0 -119 12 -174t35 -79q18 -18 43 -26t76 -8h172q51 0 76 8t43 26q23 24 35 79
t12 174t-12 174t-35 79q-18 18 -43 26t-76 8h-172q-51 0 -76 -8t-43 -26q-23 -24 -35 -79t-12 -174zM353 375h61q26 0 32 5q8 7 8 36q0 26 -7 34q-6 6 -33 6h-61v-81zM448 243q-1 32 -9 40q-6 6 -37 6h-52v-129h-123v385h250q56 0 75 -19q26 -25 26 -91q0 -52 -15.5 -74
t-51.5 -28v-1q34 -7 48.5 -22t15.5 -55q2 -67 6 -95h-125q-6 32 -8 83z" />
    <glyph glyph-name="hfjslug" horiz-adv-x="694" 
d="M644 -200h-208l-8 14h-163l-8 -14h-207v303q14 0 23 9.5t9 22.5t-9.5 22.5t-22.5 9.5v554h100l30 79h334l29 -79h101v-921zM400 563v-172h15v78h38v14h-38v66h43v14h-58zM184 563v-172h15v79h47v-79h15v172h-15v-79h-47v79h-15zM460 394q10 -4 21 -4q31 0 31 36v137h-16
v-137q0 -22 -16 -22q-8 0 -20 5v-15zM371 465l-13 3q-4 -18 -8 -30h-1l-16 31q23 21 23 42q0 31 -27 31q-12 0 -20 -9t-8 -22t14 -39q-23 -18 -23 -47q0 -16 8 -26.5t21 -10.5q19 0 29 24h1l12 -24l12 6l-17 32q6 14 13 39zM523 323v-46h8v12l8 8l15 -20h10l-20 26l18 20
h-10l-20 -24h-1v24h-8zM488 292l10 -15h9l-12 17q10 4 10 14q0 15 -17 15h-20v-46h8v15h12zM426 276q10 0 17 7t7 17q0 9 -7 16.5t-17 7.5t-17 -7.5t-7 -16.5q0 -10 7 -17t17 -7zM370 301l-13 22h-9l18 -29v-17h8v17l18 29h-9zM193 323v-46h34v7h-26v13h23v7h-23v12h26v7
h-34zM132 323v-46h8v32l25 -32h7v46h-8v-32l-25 32h-7zM241 323l14 -47h8l11 34h1l11 -34h8l14 47h-8l-10 -35h-1l-11 35h-7l-11 -35h-1l-10 35h-8zM327 479q-12 22 -12 32q0 19 14 19q13 0 13 -19q0 -15 -15 -32zM342 423q-8 -21 -20 -21q-16 0 -16 25q0 19 16 35zM487 299
h-11v17h11q10 0 10 -8q0 -9 -10 -9zM426 283q-16 0 -16 17q0 6 4.5 11.5t11.5 5.5t11.5 -5.5t4.5 -11.5q0 -17 -16 -17z" />
    <glyph glyph-name="caron.alt" horiz-adv-x="500" 
d="M146 705v50h158v-109q0 -78 -34 -128l-58 -87l-66 27l26 100q4 18 4 27q0 15 -4 28z" />
    <glyph glyph-name="NUL" horiz-adv-x="0" 
 />
    <glyph glyph-name="wiredslug" horiz-adv-x="900" 
d="M800 0h-700v700h700v-700zM300 200v400h-100v-400h100zM500 200v400h-100v-400h100zM700 200v400h-100v-400h100zM400 100v100h-100v-100h100zM600 100v100h-100v-100h100z" />
    </font>
</defs>
</svg>
